<svg width="96" height="96" xmlns="http://www.w3.org/2000/svg" xmlns:xlink="http://www.w3.org/1999/xlink" xml:space="preserve" overflow="hidden"><defs><clipPath id="clip0"><rect x="610" y="344" width="96" height="96"/></clipPath></defs><g clip-path="url(#clip0)" transform="translate(-610 -344)"><path d="M695 380C696.657 380 698 378.657 698 377L698 367C698 365.343 696.657 364 695 364L688 364 688 359C688 356.791 686.209 355 684 355 681.791 355 680 356.791 680 359L680 364 636 364 636 359C636 356.791 634.209 355 632 355 629.791 355 628 356.791 628 359L628 364 621 364C619.343 364 618 365.343 618 367L618 377C618 378.657 619.343 380 621 380L628 380 628 390 621 390C619.343 390 618 391.343 618 393L618 403C618 404.657 619.343 406 621 406L628 406 628 423.141C626.237 423.593 625.003 425.18 625 427L625 429 639 429 639 427C638.997 425.18 637.763 423.593 636 423.141L636 406 680 406 680 423.141C678.237 423.593 677.003 425.18 677 427L677 429 691 429 691 427C690.997 425.18 689.763 423.593 688 423.141L688 406 695 406C696.657 406 698 404.657 698 403L698 393C698 391.343 696.657 390 695 390L688 390 688 380ZM687.864 376 679.864 368 688.348 368 694 373.651 694 376ZM667.964 376 659.964 368 668.448 368 676.448 376ZM647.608 376 639.608 368 648.093 368 656.093 376ZM628.242 368 636.242 376 627.758 376 622 370.242 622 368ZM668.442 394 676.442 402 667.96 402 659.96 394ZM648.093 394 656.093 402 647.608 402 639.608 394ZM628.242 394 636.242 402 627.758 402 622 396.242 622 394ZM687.864 402 679.864 394 688.348 394 694 399.651 694 402ZM680 390 636 390 636 380 680 380Z"/></g></svg>