<?xml version="1.0" encoding="UTF-8"?>
<svg width="20px" height="20px" viewBox="0 0 20 20" version="1.1" xmlns="http://www.w3.org/2000/svg" xmlns:xlink="http://www.w3.org/1999/xlink">
    <title>Warning (1) (2)</title>
    <g id="Page-1" stroke="none" stroke-width="1" fill="none" fill-rule="evenodd">
        <g id="Warning-(1)-(2)" fill="#F05000" fill-rule="nonzero">
            <path d="M9,12.5573905 C9,13.1802921 9.4366211,13.6721504 10,13.6721504 C10.5633789,13.6721504 11.0031249,13.2131316 11.0031249,12.5573905 L11.0031249,7.926221 C11.0031249,7.33605397 10.5633789,6.877035 10,6.877035 C9.4366211,6.877035 9,7.33605397 9,7.926221 L9,12.5573905 Z M8.3098634,1.213069 C8.74,0.42617963 9.3427747,0 10,0 C10.6573254,0 11.3,0.42617963 11.7214855,1.213069 L19.7496094,17.2131526 C19.9060534,17.5410232 20,17.9016283 20,18.1967643 C20,19.180376 19.2488282,20 18.1533192,20 L1.84668082,20 C0.75117183,20 0,19.180376 0,18.1967643 C0,17.8688937 0.09394656,17.5410232 0.25039061,17.2131526 L8.3098634,1.213069 Z M10.2552086,2.206009 C10.1489057,2.06866967 10.0638362,2 10,2 C9.9043478,2 9.8085935,2.10294977 9.7447914,2.206009 L2.03185003,17.5193133 C2.03185003,17.5879828 2,17.6222627 2,17.7253219 C2,17.8626609 2.1276043,18 2.31901075,18 L17.663377,18 C17.9505377,18 18.078142,17.7596017 17.9505377,17.5193133 L10.2552086,2.206009 Z M9.9843756,16.8197079 C9.4209968,16.8197079 8.9828132,16.3606891 8.9828132,15.7705221 C8.9828132,15.180355 9.4209968,14.7213362 9.9843756,14.7213362 C10.5477545,14.7213362 10.9859381,15.180355 10.9859381,15.7705221 C10.9859381,16.3606891 10.5477545,16.8197079 9.9843756,16.8197079 Z" id="🎨-Color"></path>
        </g>
    </g>
</svg>