<?xml version="1.0" encoding="UTF-8"?>
<svg width="20px" height="20px" viewBox="0 0 20 20" version="1.1" xmlns="http://www.w3.org/2000/svg" xmlns:xlink="http://www.w3.org/1999/xlink">
    <title>24dp Icon/Notification/Warning</title>
    <g id="--Big-Picture--" stroke="none" stroke-width="1" fill="none" fill-rule="evenodd">
        <g id="Neuer-Auftrag_1.2" transform="translate(-1583.000000, -229.000000)" fill="#EC0016">
            <g id="24dp-Icon/Notification/Warning" transform="translate(1581.000000, 227.000000)">
                <path d="M11,14.5573905 C11,15.1802921 11.4366211,15.6721504 12,15.6721504 C12.5633789,15.6721504 13.0031249,15.2131316 13.0031249,14.5573905 L13.0031249,9.926221 C13.0031249,9.33605397 12.5633789,8.877035 12,8.877035 C11.4366211,8.877035 11,9.33605397 11,9.926221 L11,14.5573905 Z M10.3098634,3.213069 C10.74,2.42617963 11.3427747,2 12,2 C12.6573254,2 13.3,2.42617963 13.7214855,3.213069 L21.7496094,19.2131526 C21.9060534,19.5410232 22,19.9016283 22,20.1967643 C22,21.180376 21.2488282,22 20.1533192,22 L3.84668082,22 C2.75117183,22 2,21.180376 2,20.1967643 C2,19.8688937 2.09394656,19.5410232 2.25039061,19.2131526 L10.3098634,3.213069 Z M12.2552086,4.206009 C12.1489057,4.06866967 12.0638362,4 12,4 C11.9043478,4 11.8085935,4.10294977 11.7447914,4.206009 L4.03185003,19.5193133 C4.03185003,19.5879828 4,19.6222627 4,19.7253219 C4,19.8626609 4.1276043,20 4.31901075,20 L19.663377,20 C19.9505377,20 20.078142,19.7596017 19.9505377,19.5193133 L12.2552086,4.206009 Z M11.9843756,18.8197079 C11.4209968,18.8197079 10.9828132,18.3606891 10.9828132,17.7705221 C10.9828132,17.180355 11.4209968,16.7213362 11.9843756,16.7213362 C12.5477545,16.7213362 12.9859381,17.180355 12.9859381,17.7705221 C12.9859381,18.3606891 12.5477545,18.8197079 11.9843756,18.8197079 Z" id="🎨-Color"></path>
            </g>
        </g>
    </g>
</svg>