<?xml version="1.0" standalone="no"?>
<!DOCTYPE svg PUBLIC "-//W3C//DTD SVG 1.1//EN" "http://www.w3.org/Graphics/SVG/1.1/DTD/svg11.dtd" >
<svg xmlns="http://www.w3.org/2000/svg">
<metadata>Generated by IcoMoon</metadata>
<defs>
<font id="EDS-Icons" horiz-adv-x="1024">
<font-face units-per-em="1024" ascent="960" descent="-64" />
<missing-glyph horiz-adv-x="1024" />
<glyph unicode="&#x20;" horiz-adv-x="512" d="" />
<glyph unicode="&#x2b;" glyph-name="ic-24-outline-plus" d="M554.667 490.667h384v-85.333h-384v-384h-85.333v384h-384v85.333h384v384h85.333v-384z" />
<glyph unicode="&#x3c;" glyph-name="ic-24-outline-arrow-m-left" d="M401.629 448.044l311.207-311.207-60.34-60.34-371.459 371.459 370.426 371.503 60.427-60.252z" />
<glyph unicode="&#x3e;" glyph-name="ic-24-outline-arrow-m-right" d="M618.407 448.080l-311.207 311.207 60.34 60.34 371.459-371.459-370.426-371.503-60.427 60.252z" />
<glyph unicode="&#x3f;" glyph-name="ic-24-outline-circle-question" d="M512-21.333c-259.206 0-469.333 210.128-469.333 469.333s210.128 469.333 469.333 469.333c259.206 0 469.333-210.128 469.333-469.333s-210.128-469.333-469.333-469.333zM512 64c212.077 0 384 171.923 384 384s-171.923 384-384 384c-212.077 0-384-171.923-384-384s171.923-384 384-384zM554.137 320h-85.333c0 51.504 25.232 90.109 67.494 129.92 2.732 2.573 13.011 11.836 14.283 13.003 5.681 5.211 10.243 9.656 14.503 14.219 18.694 20.024 28.154 39.046 27.98 60.402-0.355 43.701-35.278 80.965-81.738 81.122-42.283 0.143-64.163-16.048-79.813-42.875-6.029-10.335-7.57-15.394-9.694-28.138l-84.172 14.029c3.677 22.060 8.011 36.284 20.158 57.106 29.565 50.682 76.58 85.472 153.81 85.211 94.579-0.319 166.056-76.587 166.78-165.762 0.377-46.48-18.656-84.753-50.936-119.328-5.962-6.387-12.019-12.287-19.193-18.868-1.887-1.731-11.546-10.434-13.456-12.234-26.454-24.92-40.673-46.675-40.673-67.806zM469.333 277.333h85.333v-85.333h-85.333v85.333z" />
<glyph unicode="&#xa7;" glyph-name="ic-24-outline-legal" d="M460.522 583.459c-42.259-13.096-73.891-47.541-76.339-82.433-2.496-35.564 21.148-65.701 44.829-81.532l2.352-1.566c2.692-1.792 2.692-1.792 6.731-4.481 9.944-6.619 9.944-6.619 24.035-15.997 24.868-16.549 49.75-33.097 72.99-48.541l0.33-0.219c28.673-19.054 52.536-34.891 70.593-46.851 42.315 13.057 73.994 47.493 76.442 82.362 2.499 35.576-21.242 66.115-44.351 81.581-6.643 4.408-6.643 4.408-33.236 22.047-24.934 16.536-49.878 33.071-73.172 48.504l-0.253 0.168c-28.846 19.11-52.829 34.983-70.951 46.959zM388.139 643.707c-21.406 29.496-28.844 64.53-23.771 110.367 12.648 82.562 80.928 138.6 167.356 141.692 102.13 4.958 193.589-67.538 204.055-170.1l-84.892-8.664c-5.702 55.871-56.779 96.358-115.567 93.508-47.369-1.697-80.389-28.797-86.367-67.568-3.923-35.626 2.63-49.938 29.314-68.995 14.179-9.281 49.768-32.81 100.335-66.309 23.56-15.609 48.515-32.152 73.46-48.694 26.603-17.645 26.603-17.645 33.254-22.058l-23.59-35.552 23.688 35.487c12.772-8.525 29.358-22.995 44.743-42.75 25.899-33.255 40.52-72.208 37.453-115.849-3.927-55.921-39.018-106.164-89.127-136.643 21.442-29.497 28.895-64.535 23.817-110.386-12.651-82.528-80.933-138.534-167.357-141.624-102.124-4.954-193.585 67.499-204.054 170.017l84.892 8.669c5.7-55.819 56.774-96.279 115.568-93.43 47.374 1.696 80.391 28.777 86.367 67.506 3.921 35.588-2.626 49.877-29.304 68.919-14.204 9.292-49.723 32.831-100.19 66.369l-0.33 0.22c-23.257 15.455-48.153 32.013-73.035 48.571-14.098 9.383-14.098 9.383-24.048 16.006-4.042 2.691-4.042 2.691-6.736 4.485l-2.375 1.581 25.633 38.504-25.695-38.462c-13.026 8.702-29.366 22.839-44.825 42.535-26.082 33.229-40.819 72.21-37.749 115.943 3.924 55.937 38.994 106.202 89.080 136.707z" />
<glyph unicode="&#x20ac;" glyph-name="ic-24-outline-euro" d="M298.964 405.333l0.622 85.333h-43.586v85.333h46.851c23.073 169.307 178.43 299.621 361.653 298.425 67.727 2.281 118.549-11.173 166.047-39.471l-43.676-73.309c-33.623 20.032-68.326 29.218-121.206 27.472-138.15 0.878-253.615-92.321-276.369-213.117h293.367v-85.333h-297.745l-0.622-85.333h298.367v-85.333h-294.905c21.216-120.137 130.076-209.672 272.982-213.315 56.545-0.528 99.255 9.927 129.985 26.17l39.876-75.443c-43.214-22.841-99.896-36.716-171.345-36.044-189.235 4.817-336.155 130.74-357.831 298.633h-45.429v85.333h42.964z" />
<glyph unicode="&#x21c6;" glyph-name="ic-24-outline-arrow-direction" d="M85.628 618.667l170.632 170.667 60.327-60.34-110.304-110.327h391.051v-85.333h-391.657l110.911-110.933-60.327-60.34-213.593 213.637 42.667 42.675v0.294h0.294zM819.020 362.667l-110.754 110.754 60.34 60.34 213.637-213.637-213.637-213.637-60.34 60.34 110.507 110.507h-392.107v85.333h392.354z" />
<glyph unicode="&#x2261;" glyph-name="ic-24-outline-hamburger" d="M0 746.667v85.333h1024v-85.333h-1024zM0 405.333v85.333h1024v-85.333h-1024zM0 64v85.333h1024v-85.333h-1024z" />
<glyph unicode="&#x2295;" glyph-name="ic-24-outline-circle-add" d="M469.333 490.667v213.333h85.333v-213.333h213.333v-85.333h-213.333v-213.333h-85.333v213.333h-213.333v85.333h213.333zM512-21.333c-259.206 0-469.333 210.128-469.333 469.333s210.128 469.333 469.333 469.333c259.206 0 469.333-210.128 469.333-469.333s-210.128-469.333-469.333-469.333zM512 64c212.077 0 384 171.923 384 384s-171.923 384-384 384c-212.077 0-384-171.923-384-384s171.923-384 384-384z" />
<glyph unicode="&#x229d;" glyph-name="ic-24-outline-circle-delete" d="M512-21.333c-259.206 0-469.333 210.128-469.333 469.333s210.128 469.333 469.333 469.333c259.206 0 469.333-210.128 469.333-469.333s-210.128-469.333-469.333-469.333zM512 64c212.077 0 384 171.923 384 384s-171.923 384-384 384c-212.077 0-384-171.923-384-384s171.923-384 384-384zM256 405.333v85.333h512v-85.333h-512z" />
<glyph unicode="&#x22ef;" glyph-name="ic-24-outline-falafel" d="M725.333 405.333v85.333h85.333v-85.333h-85.333zM469.333 405.333v85.333h85.333v-85.333h-85.333zM213.333 405.333v85.333h85.333v-85.333h-85.333z" />
<glyph unicode="&#x2302;" glyph-name="ic-24-outline-home" d="M128 498.208l-60.908-42.525-48.85 69.968 493.758 344.733 493.758-344.733-48.85-69.968-60.908 42.525v-476.875h-298.667v213.333h-170.667v-213.333h-298.667v476.875zM213.333 557.786v-451.119h128v213.333h341.333v-213.333h128v451.119l-298.667 208.523-298.667-208.523z" />
<glyph unicode="&#x2303;" glyph-name="ic-24-outline-arrow-m-up" d="M512.347 557.808l-311.207-311.207-60.34 60.34 371.459 371.459 371.503-370.426-60.252-60.427z" />
<glyph unicode="&#x2304;" glyph-name="ic-24-outline-arrow-m-down" d="M512.209 337.335l311.207 311.198 60.34-60.338-371.459-371.449-371.503 370.415 60.252 60.426z" />
<glyph unicode="&#x2370;" glyph-name="ic-24-outline-faqs" d="M213.333 192h-170.667v725.333h938.667v-725.333h-497.033l-270.967-216.773v216.773zM896 832h-768v-554.667h170.667v-124.56l155.7 124.56h441.633v554.667zM402.515 683.376l-37.030 76.88c92.364 44.488 195.325 38.046 243.153-20.178 19.207-23.375 31.916-57.496 31.344-92.505-0.294-19.679-4.606-37.972-11.965-54.984-5.012-11.586-10.093-20.113-17.192-30.413-15.434-22.434-31.787-36.757-54.247-52.215-5.442-3.739-10.747-7.084-17.040-10.829-1.798-1.070-10.806-6.339-12.99-7.658-6.546-3.954-9.858-6.423-12.165-8.907-0.445-0.479-3.716-23.325-3.716-34.568h-85.333c0 8.219 0.671 20.275 2.485 32.941 3.558 24.856 9.94 44.523 24.049 59.709 8.726 9.392 17.81 16.165 30.563 23.868 2.811 1.698 12.153 7.162 13.466 7.943 4.823 2.87 8.634 5.273 12.329 7.812 14.546 10.011 24.142 18.417 32.318 30.3 9.251 13.421 13.905 24.18 14.116 38.333 0.232 14.17-5.218 28.802-11.955 37.001-18.765 22.844-79.603 26.65-140.189-2.531zM426.667 405.333h85.333v-85.333h-85.333v85.333z" />
<glyph unicode="&#x23f0;" glyph-name="ic-24-outline-alarm" d="M512 64c-188.513 0-341.333 152.82-341.333 341.333s152.82 341.333 341.333 341.333c188.513 0 341.333-152.82 341.333-341.333s-152.82-341.333-341.333-341.333zM512 149.333c141.385 0 256 114.615 256 256s-114.615 256-256 256c-141.385 0-256-114.615-256-256s114.615-256 256-256zM846.9 628.938l-149.333 128 55.534 64.79 149.333-128-55.534-64.79zM177.1 628.938l-55.534 64.79 149.333 128 55.534-64.79-149.333-128zM469.333 430.094v188.573h85.333v-238.094l-170.831-97.618-42.337 74.090 127.835 73.049z" />
<glyph unicode="&#x25b7;" glyph-name="ic-24-outline-play" d="M256 717.632v-592.661l452.13 296.455-452.13 296.206zM249.924 823.628l548.531-359.362c23.653-15.496 30.266-47.232 14.77-70.885-3.852-5.88-8.874-10.904-14.753-14.759l-548.531-359.664c-23.647-15.505-55.386-8.905-70.891 14.742-5.47 8.342-8.383 18.099-8.383 28.074v719.026c0 28.277 22.923 51.2 51.2 51.2 9.968 0 19.72-2.91 28.058-8.372z" />
<glyph unicode="&#x2601;" glyph-name="ic-24-outline-cloud" d="M938.667 316.643c0-92.115-72.941-167.31-163.58-167.31h-526.173c-90.639 0-163.58 75.196-163.58 167.31 0 76.71 50.691 141.79 120.256 161.241 13.753 77.954 80.364 137.415 160.976 137.415 5.768 0 11.502-0.318 17.187-0.944 41.525 79.888 123.155 132.311 214.855 132.311 134.849 0 243.646-112.135 243.646-249.812 0-9.076-0.497-18.11-1.475-27.090 58.132-26.038 97.888-85.33 97.888-153.122zM750.607 451.33c4.171 15.072 6.314 30.266 6.314 45.525 0 91.116-71.179 164.478-158.312 164.478-67.582 0-127.216-44.6-149.321-110.304l-14.209-42.236-41.579 16.031c-8.821 3.401-17.835 5.143-26.934 5.143-42.926 0-78.247-36.405-78.247-81.957 0-0.075-0.002-0.034 0.079-1.433 0.112-1.734 0.112-1.734 0.199-3.297l2.234-43.745-43.789-1.085c-42.152-1.044-76.376-37.061-76.376-81.808 0-45.558 35.327-81.977 78.247-81.977h526.173c42.92 0 78.247 36.419 78.247 81.977 0 41.279-29.321 75.613-67.619 81.066l-48.053 6.842 12.946 46.779z" />
<glyph unicode="&#x2605;" glyph-name="ic-24-outline-favorite" d="M512 917.333l145.032-293.848 324.301-47.117-234.654-228.745 55.385-323.005-290.065 152.496-290.065-152.496 55.411 323.005-234.68 228.745 324.301 47.117 145.032 293.848zM512 724.528l-88.367-179.040-197.58-28.706 142.984-139.368-33.761-196.803 176.724 92.91 176.739-92.918-33.747 196.81 142.966 139.366-197.592 28.708-88.367 179.040z" />
<glyph unicode="&#x2661;" glyph-name="ic-24-outline-heart" d="M512 736l64.333 56.062c33.734 24.772 72.096 38.846 114.062 39.843 103.935 2.47 179.341-43.845 218.916-117.527s39.661-159.313-2.933-239.694c-42.595-80.382-76.887-104.272-100.147-130.707-15.507-17.623-113.583-110.949-294.23-279.978-180.647 169.029-278.723 262.355-294.23 279.978-23.26 26.434-57.552 50.325-100.147 130.707s-42.508 166.013-2.933 239.694c39.575 73.682 114.98 119.996 218.916 117.527 41.966-0.997 80.328-15.071 115.086-38.672-0.228-0.26 20.875-19.338 63.309-57.234zM742.166 400.349c2.18 2.458 2.18 2.458 4.316 4.795 1.829 1.989 31.389 31.985 39.867 41.912 15.037 17.606 29.251 38.57 44.626 67.584 29.017 54.758 29.503 110.312 3.158 159.361-25.715 47.877-73.048 74.226-141.712 72.594-39.077-0.928-77.616-22.51-116.089-66.659l-64.333-73.824-64.333 73.824c-38.473 44.149-77.011 65.731-116.089 66.659-68.664 1.632-115.998-24.718-141.712-72.594-26.345-49.049-25.858-104.603 3.158-159.361 15.375-29.014 29.589-49.978 44.626-67.584 8.478-9.927 38.038-39.923 39.867-41.912 2.136-2.338 2.136-2.338 4.316-4.795 11.12-12.637 90.762-88.662 230.166-219.421 139.404 130.759 219.047 206.784 230.166 219.421z" />
<glyph unicode="&#x2699;" glyph-name="ic-24-outline-settings" d="M355.281 774.513l10.126 106.914 28.253 7.876c40.981 11.425 82.234 17.363 123.929 17.363s82.948-5.938 123.929-17.363l28.351-7.904 9.79-107.032 40.587-23.639 96.267 44.765 21.085-20.656c58.6-57.41 99.585-131.019 121.077-215.176l7.49-29.33-93.281-62.014v-46.116l93.281-62.014-7.49-29.33c-22.108-86.569-60.866-158.968-118.294-215.187l-20.942-20.501-97.775 44.716-41.452-23.901-10.165-106.863-28.201-7.894c-40.805-11.422-82.397-17.375-124.255-17.375-41.875 0-83.552 5.959-124.336 17.375l-28.104 7.867-10.501 106.747-42.278 24.168-99.359-44.705-20.804 20.366c-61.6 60.303-106.347 134.786-126.88 215.187l-6.967 27.283 81.175 62.241v49.755l-81.175 62.241 6.967 27.283c20.145 78.883 66.389 153.076 129.836 215.187l20.95 20.509 97.761-44.753 41.407 23.908zM436.082 722.631l-117.681-67.948-83.636 38.287c-35.516-39.304-62.639-82.906-78.681-127.99l68.784-52.74v-133.957l-68.9-52.83c15.947-46.162 42.060-89.771 76.093-128.003l84.929 38.212 118.268-67.607 8.992-91.405c24.324-4.931 48.838-7.462 73.34-7.462 24.453 0 48.885 2.521 73.159 7.439l8.683 91.285 117.716 67.874 83.161-38.032c29.424 34.765 51.737 76.605 67.409 125.413l-80.168 53.296v137.596l80.041 53.212c-15.72 47.457-39.204 89.726-69.84 125.391l-81.939-38.103-117.124 68.217-8.336 91.135c-24.242 4.915-48.459 7.422-72.763 7.422-24.337 0-48.588-2.514-72.864-7.443l-8.644-91.26zM693.333 445.847c0-100.172-81.181-181.353-181.353-181.353-100.141 0-181.314 81.188-181.314 181.353s81.173 181.353 181.314 181.353c100.172 0 181.353-81.181 181.353-181.353zM608 445.847c0 53.044-42.976 96.019-96.019 96.019-53.009 0-95.981-42.98-95.981-96.019s42.971-96.019 95.981-96.019c53.044 0 96.019 42.976 96.019 96.019z" />
<glyph unicode="&#x26a0;" glyph-name="ic-24-outline-warning" d="M512 880.74l454.765-861.61h-909.53l454.765 861.61zM198.765 104.464h626.47l-313.235 593.463-313.235-593.463zM469.333 533.333h85.333v-213.333h-85.333v213.333zM469.333 234.667h85.333v-85.333h-85.333v85.333z" />
<glyph unicode="&#x2705;" glyph-name="ic-24-outline-circle-confirm" d="M512-21.333c-259.206 0-469.333 210.128-469.333 469.333s210.128 469.333 469.333 469.333c259.206 0 469.333-210.128 469.333-469.333s-210.128-469.333-469.333-469.333zM512 64c212.077 0 384 171.923 384 384s-171.923 384-384 384c-212.077 0-384-171.923-384-384s171.923-384 384-384zM415.686 315.452l331.869 331.869 60.34-60.34-392.209-392.209-211.189 211.189 60.34 60.34 150.849-150.849z" />
<glyph unicode="&#x2709;" glyph-name="ic-24-outline-mail" d="M204.918 704l307.082-204.721 307.082 204.721h-614.163zM853.333 624.277l-341.333-227.556-341.333 227.556v-389.61h682.667v389.61zM85.333 789.333h853.333v-640h-853.333v640z" />
<glyph unicode="&#x270f;" glyph-name="ic-24-outline-edit" d="M628.391 633.308l-328.684-328.684-15.085-75.425 75.425 15.085 328.684 328.684-60.34 60.34zM688.731 693.647l60.34-60.34 60.34 60.34-60.34 60.34-60.34-60.34zM930.090 693.647l-527.973-527.973-226.274-45.255 45.255 226.274 527.973 527.973 181.019-181.019z" />
<glyph unicode="&#x2713;" glyph-name="ic-24-outline-check" d="M373.929 235.923l512.888 512.888 60.34-60.34-573.228-573.228-271.529 271.529 60.34 60.34z" />
<glyph unicode="&#x2a2f;" glyph-name="ic-24-outline-close" d="M512 508.34l301.699 301.699 60.34-60.34-301.699-301.699 301.699-301.699-60.34-60.34-301.699 301.699-301.699-301.699-60.34 60.34 301.699 301.699-301.699 301.699 60.34 60.34 301.699-301.699z" />
<glyph unicode="&#x2b73;" glyph-name="ic-24-outline-download" d="M469.333 380.34v494.327h85.333v-494.327l183.163 183.163 60.34-60.34-286.17-286.17-286.17 286.17 60.34 60.34 183.163-183.163zM213.333 21.333v85.333h597.333v-85.333h-597.333z" />
<glyph unicode="&#x2bbe;" glyph-name="ic-24-outline-circle-close" d="M570.196 450.144l150.849-150.849-60.34-60.34-150.849 150.849-150.849-150.849-60.34 60.34 150.849 150.849-150.849 150.849 60.34 60.34 150.849-150.849 150.849 150.849 60.34-60.34-150.849-150.849zM512-21.333c-259.206 0-469.333 210.128-469.333 469.333s210.128 469.333 469.333 469.333c259.206 0 469.333-210.128 469.333-469.333s-210.128-469.333-469.333-469.333zM512 64c212.077 0 384 171.923 384 384s-171.923 384-384 384c-212.077 0-384-171.923-384-384s171.923-384 384-384z" />
<glyph unicode="&#xe900;" glyph-name="ic-24-outline-forward" d="M792.994 490.667l-97.83 97.83 60.34 60.34 200.837-200.837-200.837-200.837-60.34 60.34 97.83 97.83h-366.327v85.333h366.327zM554.667 192v128h85.333v-213.333h-554.667v682.667h554.667v-213.333h-85.333v128h-384v-512h384z" />
<glyph unicode="&#xe901;" glyph-name="ic-24-outline-discard" d="M211.972 687.688c-52.549-65.693-83.972-149.021-83.972-239.688 0-212.077 171.923-384 384-384 90.667 0 173.995 31.423 239.688 83.972l-539.716 539.716zM272.312 748.028l539.716-539.716c52.549 65.693 83.972 149.021 83.972 239.688 0 212.077-171.923 384-384 384-90.667 0-173.995-31.423-239.688-83.972zM512-21.333c-259.206 0-469.333 210.128-469.333 469.333s210.128 469.333 469.333 469.333c259.206 0 469.333-210.128 469.333-469.333s-210.128-469.333-469.333-469.333z" />
<glyph unicode="&#xe902;" glyph-name="ic-24-outline-dashboard" d="M469.333 149.333v256h-256v-256h256zM554.667 149.333h256v256h-256v-256zM213.333 490.667h597.333v256h-597.333v-256zM896 64h-768v768h768v-768z" />
<glyph unicode="&#xe906;" glyph-name="ic-24-outline-database" d="M810.695 351.047v81.587c-76.155-38.516-175.689-57.254-298.208-57.254-122.746 0-222.57 18.808-299.081 57.448v-81.686c64.208-47.184 163.651-71.763 299.081-71.763 135.382 0 234.531 24.561 298.208 71.667zM810.695 251.301c-76.155-38.516-175.689-57.254-298.208-57.254-122.746 0-222.57 18.808-299.081 57.448v-62.259c-0.004-1.342-0.004-1.342-0.012-2.492-0.053-7.052 0.051-7.521 2.284-10.457 7.234-9.511 25.766-21.566 59.742-34.816 73.934-28.833 122.943-34.804 236.62-34.804 113.699 0 162.707 5.97 236.642 34.804 33.975 13.25 52.508 25.304 59.742 34.816 2.234 2.937 2.337 3.405 2.284 10.457-0.009 1.15-0.009 1.15-0.012 2.492v62.065zM810.695 532.38v70.92c-76.155-38.516-175.689-57.254-298.208-57.254-122.746 0-222.57 18.808-299.081 57.448v-71.019c64.208-47.184 163.651-71.763 299.081-71.763 135.382 0 234.531 24.561 298.208 71.667zM810.695 703.047v13.099c-0.006 0.007-0.013 0.014-0.020 0.021-4.107 4.369-11.414 9.877-21.278 15.718-21.388 12.664-51.683 25.119-83.409 34.309-54.844 15.886-124 23.14-193.926 23.14-69.947 0-139.103-7.253-193.949-23.14-31.726-9.19-62.021-21.645-83.409-34.309-9.864-5.841-17.171-11.349-21.278-15.718-0.859-0.913-0.020 0.741-0.020 5.927v-18.951c64.208-47.184 163.651-71.763 299.081-71.763 135.382 0 234.531 24.561 298.208 71.667zM244.416 61.968c-87.919 34.286-116.755 72.2-116.353 125.42 0.008 1.061 0.008 1.061 0.010 1.847v532.858c0 56.499 70.741 98.386 166.299 126.065 63.774 18.472 140.396 26.509 217.69 26.509 77.274 0 153.896-8.037 217.667-26.509 95.558-27.678 166.299-69.566 166.299-126.065v-532.858c0.002-0.786 0.002-0.786 0.010-1.847 0.402-53.22-28.434-91.133-116.353-125.42-86.011-33.542-144.231-40.635-267.646-40.635-123.393 0-181.614 7.093-267.624 40.635z" />
<glyph unicode="&#xe907;" glyph-name="ic-24-outline-marketplace" d="M768 234.667h-512v-128h512v128zM768 320v128h85.333v-426.667h-682.667v426.667h85.333v-128h512zM161.377 490.607c-65.765 22.125-83.514 78.155-73.432 153.618 5.197 38.905 38.994 106.1 103.275 210.193l12.504 20.249h590.743l11.758-23.712c56.293-113.523 85.3-173.108 90.31-185.797 8.061-20.415 10.848-48.636 9.299-67.75-1.486-18.349-7.795-40.359-21.898-61.23-22.375-33.112-58.861-53.396-107.493-54.537-41.433-0.972-74.66 13.258-99.651 37.941-22.806-23.69-52.229-37.953-88.704-37.953-36.368 0-66.473 13.722-90.79 36.597-23.798-24.335-56.358-38.662-97.465-38.662-41.684 0-74.059 14.731-97.285 39.835-35.829-33.74-85.093-47.657-141.172-28.792zM741.523 789.333h-490.086c-49.372-81.504-76.173-135.914-78.911-156.408-5.323-39.842-0.216-55.964 16.060-61.439 24.199-8.141 41.285-3.314 55.261 9.847 2.086 1.964 4.308 4.527 6.705 7.745 1.768 2.374 3.563 5.002 5.755 8.394 0.579 0.895 4.882 7.663 6.18 9.637 3.251 4.943 5.919 8.581 9.307 12.224 8.878 9.546 19.352 16.119 35.344 16.119 34.168 0 61.864-64.15 54.144-53.264 8.090-11.408 18.638-17.292 38.552-17.292 20.331 0 32.031 6.347 40.845 18.145-5.9-7.899 20.142 52.498 53.279 52.409 17.785-0.047 30.145-9.86 33.896-16.425 3.083-4.081 3.083-4.081 4.645-6.573 1.050-1.68 4.673-7.813 5.009-8.37 4.225-7.019 8.020-12.503 12.449-17.62 11.192-12.931 23.085-19.502 38.132-19.502 13.772 0 23.658 6.045 33.023 18.713 3.855 5.214 7.086 10.821 10.777 18.291-0.522-1.055 3.464 7.122 4.538 9.159 1.502 2.838 1.502 2.838 4.677 7.6 2.383 3.178 2.383 3.178 7.562 8.103 8.083 6.397 8.083 6.397 27.506 10.164 31.987 0.253 61.317-60.484 55.172-52.558 10.24-13.21 22.826-19.959 43.098-19.484 33.413 0.784 44.733 17.537 46.338 37.347 0.579 7.152-0.968 22.817-3.615 29.522-3.328 8.428-29.407 62.119-75.641 155.514z" />
<glyph unicode="&#xe90c;" glyph-name="ic-24-outline-arrow-s-down" d="M652.497 563.503l60.34-60.34-200.837-200.837-200.837 200.837 60.34 60.34 140.497-140.497z" />
<glyph unicode="&#xe90d;" glyph-name="ic-24-outline-arrow-s-left" d="M628.11 307.2l-60.34-60.34-200.837 200.837 200.837 200.837 60.34-60.34-140.497-140.497z" />
<glyph unicode="&#xe90e;" glyph-name="ic-24-outline-arrow-s-right" d="M401.067 588.221l60.34 60.313 200.837-200.747-200.837-200.747-60.34 60.313 140.497 140.434z" />
<glyph unicode="&#xe90f;" glyph-name="ic-24-outline-arrow-s-up" d="M371.503 331.89l-60.34 60.34 200.837 200.837 200.837-200.837-60.34-60.34-140.497 140.497z" />
<glyph unicode="&#xe910;" glyph-name="ic-24-outline-history" d="M162.378 692.63c78.932 112.726 208.297 182.037 349.622 182.037 235.641 0 426.667-191.025 426.667-426.667s-191.025-426.667-426.667-426.667c-128.825 0-248.344 57.497-328.881 154.839-24.321 29.396-44.628 61.929-60.313 96.747-24.588 54.581-37.472 113.963-37.472 175.080h85.333c0-48.973 10.294-96.415 29.942-140.031 12.541-27.838 28.788-53.867 48.257-77.399 64.494-77.951 160.013-123.903 263.134-123.903 188.513 0 341.333 152.82 341.333 341.333s-152.82 341.333-341.333 341.333c-117.917 0-225.352-60.249-287.587-157.389l57.187-55.944h-196.267v192l77.045-75.37zM534.703 682.667v-208.978l158.63-83.981-39.926-75.417-204.037 108.019v260.355h85.333z" />
<glyph unicode="&#xe911;" glyph-name="ic-24-outline-incoming" d="M469.333 410.51v421.49h85.333v-421.49l97.83 97.83 60.34-60.34-200.837-200.837-200.837 200.837 60.34 60.34 97.83-97.83zM768 576h-128v85.333h213.333v-640h-682.667v640h213.333v-85.333h-128v-469.333h512v469.333z" />
<glyph unicode="&#xe913;" glyph-name="ic-24-outline-copy" d="M128 704h597.223l1.762-681.222-598.985-1.555v682.778zM213.333 618.667v-511.889l428.098 1.111-1.321 510.778h-426.777zM853.333 789.333h-469.333v85.333h554.667v-682.667h-170.667v85.333h85.333v512z" />
<glyph unicode="&#xe914;" glyph-name="ic-24-outline-maximize" d="M754.816 746.667h-157.483v85.333h298.667v-298.667h-85.333v148.504l-532.504-532.504h148.504v-85.333h-298.667v298.667h85.333v-157.483l541.483 541.483zM810.667 149.333v213.333h85.333v-298.667h-298.667v85.333h213.333zM213.333 746.667v-213.333h-85.333v298.667h298.667v-85.333h-213.333z" />
<glyph unicode="&#xe915;" glyph-name="ic-24-outline-new_open" d="M810.667 685.774l-407.603-407.603-60.34 60.34 408.156 408.156h-153.546v85.333h298.667v-298.667h-85.333v152.441zM810.667 149.333v298.667h85.333v-384h-768v768h384v-85.333h-298.667v-597.333h597.333z" />
<glyph unicode="&#xe916;" glyph-name="ic-24-outline-outgoing" d="M554.667 728.994v-451.66h-85.333v451.66l-97.83-97.83-60.34 60.34 200.837 200.837 200.837-200.837-60.34-60.34-97.83 97.83zM725.333 490.667h-85.333v85.333h170.667v-554.667h-597.333v554.667h170.667v-85.333h-85.333v-384h426.667v384z" />
<glyph unicode="&#xe917;" glyph-name="ic-24-outline-reset" d="M857.752 698.067v144.6h85.333v-256h-256v85.333h82.513c-63.79 73.369-156.87 117.333-257.598 117.333-188.513 0-341.333-152.82-341.333-341.333s152.82-341.333 341.333-341.333c103.12 0 198.64 45.951 263.134 123.903 19.47 23.532 35.717 49.561 48.257 77.399 19.649 43.616 29.942 91.058 29.942 140.031h85.333c0-61.117-12.885-120.499-37.472-175.080-15.685-34.818-35.992-67.351-60.313-96.747-80.537-97.342-200.057-154.839-328.881-154.839-235.641 0-426.667 191.025-426.667 426.667s191.025 426.667 426.667 426.667c139.039 0 266.501-67.087 345.752-176.6z" />
<glyph unicode="&#xe918;" glyph-name="ic-24-outline-route" d="M554.667 109.307v-87.974h-85.333v87.974c-154.399 19.253-276.773 141.627-296.026 296.026h-87.974v85.333h87.974c19.253 154.399 141.627 276.773 296.026 296.026v87.974h85.333v-87.974c154.399-19.253 276.773-141.627 296.026-296.026h87.974v-85.333h-87.974c-19.253-154.399-141.627-276.773-296.026-296.026zM469.333 195.54v124.46h85.333v-124.46c107.2 17.985 191.809 102.594 209.794 209.794h-124.46v85.333h124.46c-17.985 107.2-102.594 191.809-209.794 209.794v-124.46h-85.333v124.46c-107.2-17.985-191.809-102.594-209.794-209.794h124.46v-85.333h-124.46c17.985-107.2 102.594-191.809 209.794-209.794z" />
<glyph unicode="&#xe919;" glyph-name="ic-24-outline-funnel" d="M384 433.778l-247.467 329.956 34.133 68.267h682.667l34.133-68.267-247.467-329.956v-284.444l-23.586-38.162-170.667-85.333-61.748 38.162v369.778zM256 746.667l204.8-273.067 8.533-25.6v-314.964l85.333 42.667v272.297l8.533 25.6 204.8 273.067h-512z" />
<glyph unicode="&#xe920;" glyph-name="ic-24-outline-scale" d="M579.66 576h-110.327v85.333h256v-256h-85.333v110.327l-145.673-145.673-60.34 60.34 145.673 145.673zM128 64v298.667h298.667v-298.667h-298.667zM213.333 149.333h128v128h-128v-128zM213.333 746.667v-298.667h-85.333v384h768v-765.63l-383.737-2.369-0.527 85.332 298.93 1.845v595.489h-597.333z" />
<glyph unicode="&#xe922;" glyph-name="ic-24-outline-undo" d="M261.176 576l97.83-97.83-60.34-60.34-200.837 200.837 200.837 200.837 60.34-60.34-97.83-97.83h393.046c162.671 0 284.444-125.522 284.444-292.978 0-141.749-127.573-261.689-284.444-261.689h-312.889v85.333h312.889c110.88 0 199.111 82.952 199.111 176.356 0 120.897-84.157 207.644-199.111 207.644h-393.046z" />
<glyph unicode="&#xe923;" glyph-name="ic-24-outline-upload_cloud" d="M597.333 405.333v-341.333h-85.333v341.333l-102.4-76.8-51.2 68.267 196.267 147.2 196.267-147.2-51.2-68.267-102.4 76.8zM981.333 334.208c0-103.847-77.788-184.874-177.030-184.874h-91.367v85.333h91.367c51.317 0 91.697 42.061 91.697 99.541 0 52.842-34.22 94.48-79.611 101.386l-46.714 7.108 11.823 45.749c4.992 19.318 7.371 36.773 7.371 55.464 0 113.083-81.689 202.752-180.651 202.752-76.285 0-144.53-54.752-170.119-136.1l-13.974-44.423-43.033 17.798c-9.71 4.016-19.99 6.074-30.685 6.074-49.63 0-91.673-46.389-91.673-105.519 0-0.506 0.014-0.819 0.159-3.309 0.075-1.233 0.075-1.233 0.157-2.739l2.243-43.682-43.725-1.157c-50.478-1.336-89.567-42.911-89.567-99.376 0-57.487 40.387-99.567 91.697-99.567h142.518v-85.333h-142.518c-99.239 0-177.030 81.050-177.030 184.9 0 87.607 55.446 158.987 132.743 179.080 12.826 91.087 85.507 162.035 174.996 162.035 7.077 0 14.094-0.445 21.026-1.327 44.476 94.871 134.7 157.978 236.785 157.978 147.958 0 265.985-129.557 265.985-288.086 0-12.321-0.743-24.291-2.232-36.229 65.203-28.252 109.364-95.328 109.364-173.478z" />
<glyph unicode="&#xe928;" glyph-name="ic-24-outline-share-android" d="M382.059 472.139c1.277-7.858 1.941-15.921 1.941-24.139s-0.664-16.282-1.941-24.139l311.199-181.533c25.968 21.845 59.485 35.005 96.076 35.005 82.475 0 149.333-66.859 149.333-149.333s-66.859-149.333-149.333-149.333c-82.475 0-149.333 66.859-149.333 149.333 0 14.929 2.191 29.346 6.268 42.948l-301.673 175.976c-27.292-29.667-66.439-48.257-109.929-48.257-82.475 0-149.333 66.859-149.333 149.333s66.859 149.333 149.333 149.333c43.489 0 82.637-18.59 109.929-48.257l301.673 175.976c-4.077 13.602-6.268 28.019-6.268 42.948 0 82.475 66.859 149.333 149.333 149.333s149.333-66.859 149.333-149.333c0-82.475-66.859-149.333-149.333-149.333-36.59 0-70.107 13.16-96.076 35.005l-311.199-181.533zM789.333 64c35.346 0 64 28.654 64 64s-28.654 64-64 64c-35.346 0-64-28.654-64-64s28.654-64 64-64zM789.333 704c35.346 0 64 28.654 64 64s-28.654 64-64 64c-35.346 0-64-28.654-64-64s28.654-64 64-64zM234.667 384c35.346 0 64 28.654 64 64s-28.654 64-64 64c-35.346 0-64-28.654-64-64s28.654-64 64-64z" />
<glyph unicode="&#xfe19;" glyph-name="ic-24-outline-kebab" d="M469.333 746.667h85.333v-85.333h-85.333v85.333zM469.333 490.667h85.333v-85.333h-85.333v85.333zM469.333 234.667h85.333v-85.333h-85.333v85.333z" />
<glyph unicode="&#x1030e;" glyph-name="ic-24-outline-grid" d="M85.333 21.333v384h384v-384h-384zM170.667 106.667h213.333v213.333h-213.333v-213.333zM554.667 21.333v384h384v-384h-384zM640 106.667h213.333v213.333h-213.333v-213.333zM554.667 490.667v384h384v-384h-384zM640 576h213.333v213.333h-213.333v-213.333zM85.333 490.667v384h384v-384h-384zM170.667 576h213.333v213.333h-213.333v-213.333z" />
<glyph unicode="&#x1f441;" glyph-name="ic-24-outline-visibility" d="M938.667 448c0-115.444-226.521-298.667-426.654-298.667-199.053 0-426.68 185.456-426.68 298.667s227.627 298.667 426.68 298.667c200.132 0 426.654-183.223 426.654-298.667zM853.333 448c0 16.889-40.156 72.527-96.633 118.21-73.168 59.183-159.485 95.124-244.687 95.124-84.901 0-171.064-36.356-244.592-96.263-56.103-45.709-96.754-101.71-96.754-117.071s40.651-71.362 96.754-117.071c73.529-59.906 159.691-96.263 244.592-96.263 85.202 0 171.519 35.941 244.687 95.124 56.478 45.682 96.633 101.321 96.633 118.21zM682.667 448c0-94.251-76.415-170.667-170.667-170.667s-170.667 76.415-170.667 170.667c0 94.251 76.415 170.667 170.667 170.667s170.667-76.415 170.667-170.667zM597.333 448c0 47.123-38.21 85.333-85.333 85.333s-85.333-38.21-85.333-85.333c0-47.123 38.21-85.333 85.333-85.333s85.333 38.21 85.333 85.333z" />
<glyph unicode="&#x1f4ac;" glyph-name="ic-24-outline-message" d="M256 661.333h469.333v-85.333h-469.333v85.333zM256 490.667h298.667v-85.333h-298.667v85.333zM213.333 192h-128v640h853.333v-640h-457.515l-267.818-160.691v160.691zM170.667 746.667v-469.333h128v-95.309l158.849 95.309h395.818v469.333h-682.667z" />
<glyph unicode="&#x1f4be;" glyph-name="ic-24-outline-save" d="M682.667 746.667v-170.667h-384v170.667h-85.333v-597.333h85.333v298.667h426.667v-298.667h85.333v479.32l-118.013 118.013h-9.987zM896 64h-768v768h600l168-168v-600zM384 149.333h256v213.333h-256v-213.333zM384 746.667v-85.333h213.333v85.333h-213.333z" />
<glyph unicode="&#x1f4c1;" glyph-name="ic-24-outline-folder" d="M853.333 192v426.667h-376.68l-85.333 85.333h-220.654v-512h682.667zM938.667 106.667h-853.333v682.667h341.333l85.333-85.333h426.667v-597.333z" />
<glyph unicode="&#x1f4c2;" glyph-name="ic-24-outline-folder_open" d="M170.667 533.333h-33.288l68.267-341.333h612.71l68.267 341.333h-715.955zM213.333 618.667h597.333v42.667h-401.673l-42.667 42.667h-152.994v-85.333zM990.712 618.667l-102.4-512h-752.623l-102.4 512h94.712v170.667h273.673l42.667-42.667h451.66v-128h94.712z" />
<glyph unicode="&#x1f4c4;" glyph-name="ic-24-outline-document-list" d="M554.667 832h-298.667v-768h512v512h-213.333v256zM640 796.654v-135.32h128v7.32l-128 128zM170.667 917.333h469.333l213.333-213.333v-725.333h-682.667v938.667zM341.333 448v85.333h85.333v-85.333h-85.333zM341.333 320v85.333h85.333v-85.333h-85.333zM341.333 192v85.333h85.333v-85.333h-85.333zM469.333 448v85.333h213.333v-85.333h-213.333zM469.333 320v85.333h213.333v-85.333h-213.333zM469.333 192v85.333h213.333v-85.333h-213.333z" />
<glyph unicode="&#x1f4c5;" glyph-name="ic-24-outline-calendar" d="M213.333 661.333h597.333v128h85.333v-725.333h-768v725.333h85.333v-128zM810.667 576h-597.333v-426.667h597.333v426.667zM256 874.667h85.333v-170.667h-85.333v170.667zM682.667 874.667h85.333v-170.667h-85.333v170.667zM298.667 490.667h85.333v-85.333h-85.333v85.333zM469.333 490.667h85.333v-85.333h-85.333v85.333zM640 490.667h85.333v-85.333h-85.333v85.333zM298.667 320h85.333v-85.333h-85.333v85.333zM469.333 320h85.333v-85.333h-85.333v85.333zM640 320h85.333v-85.333h-85.333v85.333zM426.667 704v85.333h170.667v-85.333h-170.667z" />
<glyph unicode="&#x1f4cd;" glyph-name="ic-24-outline-destination" d="M170.667 588.034c0 181.867 152.82 329.299 341.333 329.299s341.333-147.432 341.333-329.299c0-72.736-24.444-139.965-65.84-194.456l-275.494-393.578-275.496 393.581c-41.394 54.491-65.837 121.718-65.837 194.453zM512.010 148.793l207.534 296.404c31.394 41.326 48.456 90.782 48.456 142.837 0 134.040-113.943 243.966-256 243.966s-256-109.926-256-243.966c0-52.054 17.062-101.51 48.455-142.835l1.958-2.684 205.597-293.722zM512 448c-82.475 0-149.333 66.859-149.333 149.333s66.859 149.333 149.333 149.333c82.475 0 149.333-66.859 149.333-149.333s-66.859-149.333-149.333-149.333zM512 533.333c35.346 0 64 28.654 64 64s-28.654 64-64 64c-35.346 0-64-28.654-64-64s28.654-64 64-64z" />
<glyph unicode="&#x1f4ce;" glyph-name="ic-24-outline-attachment" d="M799.337 511.995c17.457 15.828 44.44 14.507 60.268-2.951s14.507-44.44-2.951-60.268l-374.746-339.709c-106.247-88.202-212.418-78.797-292.033 3.085-78.525 80.761-87.59 190.263 2.295 275.166l448.508 397.398c63.047 58.049 120.993 64.982 184.459 6.967 59.63-63.866 44.369-126.619-18.493-182.154l-438.067-386.821c-17.663-15.597-44.627-13.922-60.224 3.741s-13.922 44.627 3.741 60.224l438.060 386.814c31.012 27.398 33.492 37.594 15.060 57.539-24.727 22.53-33.542 21.475-67.341-9.634l-448.105-397.022c-51.070-48.256-46.488-103.597 1.287-152.733 49.44-50.848 105.407-55.806 174.941 1.866l373.34 338.49z" />
<glyph unicode="&#x1f4de;" glyph-name="ic-24-outline-phone" d="M194.987 742.118c-14.677-16.455-28.442-55.841-23.235-109.298 8.795-90.299 68.643-199.588 197.213-327.106 110.637-109.732 210.182-169.392 297.286-190.638 53.644-13.084 92.77-9.99 117.668-0.786 9.56 3.534 21.326 11.778 36.496 25.397 5.030 4.516 21.556 20.073 23.714 22.047 0.25 0.229 0.496 0.455 0.738 0.68-16.526 16.752-41.424 41.985-55.013 55.711l-0.841 0.849c-36.576 36.941-61.46 61.778-68.889 68.641-2.318 2.141-4.407 3.961-6.23 5.464-3.005-2.653-6.047-5.373-9.234-8.25-1.602-1.448-1.602-1.448-3.208-2.905-4.195-3.81-8.377-7.641-17.425-15.941-25.158-23.049-49.601-31.62-83.376-25.094-31.089 6.007-80.291 47.038-162.403 125.474-52.444 50.096-107.349 116.309-119.656 141.032-17.805 35.768-16.726 78.798 18.215 110.385 12.114 10.952 19.912 18.045 28.957 26.329l0.137 0.125c1.914 1.754 3.311 3.035 4.497 4.122-22.572 22.474-104.861 106.756-131.706 134.615-16.943-13.69-31.339-26.987-43.706-40.852zM294.228 848.349c15.783-16.647 121.206-124.681 138.909-142.027 37.28-36.529 42.639-77.163 5.924-110.789-8.385-7.684-8.385-7.684-15.527-14.231l-0.138-0.127c-9.181-8.408-17.114-15.624-29.363-26.698-1.559-1.409-1.621-3.889 0.952-9.057 6.986-14.034 56.292-73.494 102.207-117.354 60.682-57.966 113.804-102.267 119.648-103.396 5.111-0.988 3.066-1.705 9.544 4.23 9.003 8.26 13.346 12.238 17.703 16.195 1.689 1.533 1.689 1.533 3.389 3.069 7.391 6.673 14.136 12.624 21.322 18.781 36.36 31.156 71.886 17.842 109.226-16.647 8.85-8.174 33.581-32.859 71.629-71.287l0.844-0.853c21.487-21.704 70.657-71.576 71.3-72.222 34.88-35.036 17.504-72.805-20.080-107.176-1.425-1.303-18.342-17.229-24.294-22.572-22.53-20.228-41.907-33.803-63.915-41.939-40.291-14.895-96.655-19.352-167.477-2.078-103.109 25.149-216.052 92.84-337.157 212.953-141.694 140.535-211.138 267.345-222.054 379.421-7.58 77.826 14.357 140.594 44.485 174.372 18.642 20.9 39.842 39.829 64.878 59.218 36.564 28.315 70.538 19.226 98.044-9.787z" />
<glyph unicode="&#x1f4f7;" glyph-name="ic-24-outline-cam" d="M360.088 746.667h621.245v-597.333h-938.667v597.333h110.296l42.563 42.667h125.406l39.156-42.667zM128 234.667h768v426.667h-573.421l-39.156 42.667h-52.49l-42.562-42.667h-60.37v-426.667zM682.667 277.333c-94.257 0-170.667 76.41-170.667 170.667s76.41 170.667 170.667 170.667c94.257 0 170.667-76.41 170.667-170.667s-76.41-170.667-170.667-170.667zM682.667 362.667c47.128 0 85.333 38.205 85.333 85.333s-38.205 85.333-85.333 85.333c-47.128 0-85.333-38.205-85.333-85.333s38.205-85.333 85.333-85.333zM170.667 490.667v85.333h256v-85.333h-256z" />
<glyph unicode="&#x1f508;" glyph-name="ic-24-outline-volume_mute" d="M554.667 636.624l-167.847-103.291h-130.82v-170.667h153.837l144.83-96.553v370.51zM640 789.333v-682.667l-256 170.667h-213.333v341.333h192l277.333 170.667z" />
<glyph unicode="&#x1f509;" glyph-name="ic-24-outline-volume_down" d="M640 789.333v-682.667l-256 170.667h-213.333v341.333h192l277.333 170.667zM554.667 636.624l-167.847-103.291h-130.82v-170.667h153.837l144.83-96.553v370.51zM746.189 240.111l-41.711 74.445c52.956 29.671 84.855 79.603 84.855 133.462 0 53.827-31.904 103.758-84.855 133.426l41.711 74.445c78.873-44.192 128.478-121.826 128.478-207.871 0-86.074-49.6-163.712-128.478-207.907z" />
<glyph unicode="&#x1f50a;" glyph-name="ic-24-outline-volume_up" d="M660.855 240.111l-41.711 74.445c52.956 29.671 84.855 79.603 84.855 133.462 0 53.827-31.904 103.758-84.855 133.426l41.711 74.445c78.873-44.192 128.478-121.826 128.478-207.871 0-86.074-49.6-163.712-128.478-207.907zM768.909 112.923l-44.484 72.821c92.975 56.796 150.242 154.864 150.242 262.274 0 107.379-57.27 205.445-150.242 262.238l44.484 72.821c117.881-72.010 191.091-197.37 191.091-335.060 0-137.719-73.205-263.082-191.091-335.095zM554.667 789.333v-682.667l-256 170.667h-213.333v341.333h192l277.333 170.667zM469.333 636.624l-167.847-103.291h-130.82v-170.667h153.837l144.83-96.553v370.51z" />
<glyph unicode="&#x1f50d;" glyph-name="ic-24-outline-search" d="M664.225 352.286l261.722-257.892-59.893-60.783-262.724 258.88c-49.475-36.351-110.56-57.825-176.662-57.825-164.952 0-298.667 133.715-298.667 298.667s133.715 298.667 298.667 298.667c164.952 0 298.667-133.715 298.667-298.667 0-68.069-22.77-130.818-61.108-181.047zM426.667 320c117.824 0 213.333 95.51 213.333 213.333s-95.51 213.333-213.333 213.333c-117.824 0-213.333-95.51-213.333-213.333s95.51-213.333 213.333-213.333z" />
<glyph unicode="&#x1f513;" glyph-name="ic-24-outline-lock-open" d="M298.667 533.333v128c0 117.821 95.513 213.333 213.333 213.333s213.333-95.513 213.333-213.333v-42.667h-85.333v42.667c0 70.692-57.308 128-128 128s-128-57.308-128-128v-128h469.333v-512h-682.667v512h128zM256 448v-341.333h512v341.333h-512zM469.333 362.667h85.333v-128h-85.333v128z" />
<glyph unicode="&#x1f514;" glyph-name="ic-24-outline-alert" d="M554.667 106.667h-85.333c0-23.566 19.097-42.667 42.659-42.667 23.568 0 42.675 19.106 42.675 42.667zM640 106.667c0-70.689-57.313-128-128.008-128s-127.992 57.31-127.992 128h-233.742l-12.579 19.727c-1.823 2.859-3.686 6.427-5.356 10.78-6.52 17.001-6.687 36.492 4.753 55.094 3.808 6.192 8.691 11.721 14.515 16.512 4.189 3.443 8.237 6.692 14.331 11.53 1.666 1.322 1.666 1.322 3.315 2.63 75.876 60.188 98.811 102.923 101.444 246.195 3.45 187.962 12.203 238.821 43.562 292.569 25.272 43.306 56.135 60.425 118.696 78.936 5.714 1.678 9.958 2.927 13.467 3.971 0.712 3.143 0.712 3.143 1.075 4.733 9.726 42.421 32.904 67.989 83.566 67.989h4.572c50.662 0 73.84-25.569 83.566-67.989 0.362-1.59 0.362-1.59 0.689-3.041 3.895-2.736 8.139-3.985 13.853-5.663 62.561-18.51 93.425-35.63 118.698-78.939 31.357-53.745 40.11-104.603 43.56-292.565 2.633-143.273 25.568-186.008 101.444-246.196 1.65-1.308 1.65-1.308 3.315-2.63 6.094-4.838 10.142-8.087 14.344-11.541 5.811-4.78 10.695-10.309 14.502-16.501 11.439-18.602 11.273-38.093 4.753-55.094-1.67-4.354-3.533-7.922-5.356-10.78l-12.579-19.727h-276.409zM263.403 192h539.861c-64.485 63.317-89.975 132.837-92.597 275.57-3.202 174.437-9.896 213.335-31.945 251.125-11.155 19.116-25.944 27.319-69.205 40.119-11.306 3.318-17.424 5.128-23.56 7.022-17.709 5.467-30.997 16.912-39.334 32.311-4.953 9.149-6.948 15.885-9.992 29.389-0.323 1.436-0.323 1.436-0.62 2.738-1.187 5.177-2.841 5.752-4.963 1.726-0.688-3.028-0.688-3.028-1.011-4.464-3.045-13.504-5.039-20.24-9.992-29.389-8.337-15.398-21.625-26.844-39.332-32.31-6.138-1.895-12.256-3.705-23.562-7.023-43.261-12.8-58.050-21.003-69.203-40.115-22.051-37.793-28.745-76.692-31.947-251.129-2.623-142.732-28.112-212.252-92.597-275.569z" />
<glyph unicode="&#x1f517;" glyph-name="ic-24-outline-link" d="M612.527 503.042l-58.446-62.176c-14.038 13.196-21.64 20.321-28.222 26.483l-0.032 0.030c-4.017 3.771-7.45 7.018-25.35 23.971-27.801 26.331-73.757 25.168-96.077 2.749-16.228-16.3-49.425-49.51-101.007-101.064l-0.102-0.102c-5.715-5.712-82.996-82.939-96.080-96.024-27.482-27.482-24.563-107.385 12.407-144.759 34.893-35.274 116.574-36.371 143.957-10.218 25.998 24.83 120.936 119.031 146.614 145.379l61.112-59.557c-26.369-27.057-122.028-121.974-148.789-147.532-61.022-58.279-195.915-56.467-263.561 11.918-68.981 69.735-73.861 203.329-12.080 265.11 13.097 13.097 90.392 90.339 96.097 96.040l0.102 0.102c51.521 51.493 84.701 84.686 100.857 100.914 54.706 54.949 153.518 57.449 215.23-0.998 17.778-16.838 21.193-20.068 25.076-23.712 6.547-6.129 14.205-13.307 28.296-26.552zM415.019 401.669l58.446 62.176c14.038-13.196 21.64-20.321 28.222-26.483l0.032-0.030c4.017-3.771 7.45-7.018 25.35-23.971 27.801-26.331 73.757-25.168 96.077-2.749 16.228 16.3 49.425 49.51 101.007 101.064l0.102 0.102c5.715 5.712 82.996 82.939 96.080 96.024 27.482 27.482 24.563 107.385-12.407 144.759-34.893 35.274-116.574 36.371-143.957 10.218-25.998-24.83-120.936-119.031-146.614-145.379l-61.112 59.557c26.369 27.057 122.028 121.974 148.789 147.532 61.022 58.279 195.915 56.467 263.561-11.918 68.981-69.735 73.861-203.329 12.080-265.11-13.097-13.097-90.392-90.339-96.097-96.040l-0.102-0.102c-51.521-51.493-84.701-84.686-100.857-100.914-54.706-54.949-153.518-57.449-215.23 0.998-17.778 16.838-21.193 20.068-25.076 23.712-6.547 6.129-14.205 13.307-28.296 26.552z" />
<glyph unicode="&#x1f527;" glyph-name="ic-24-outline-build" d="M234.46 463.912c56.428-56.428 141.102-71.619 212.962-40.101l26.695 11.708 273.269-273.269 60.34 60.34-273.287 273.287 11.689 26.687c31.469 71.845 16.266 156.473-40.138 212.877-39.635 39.635-93.206 58.925-146.484 55.974l116.314-116.314-181.019-181.019-116.314 116.314c-2.951-53.278 16.339-106.849 55.974-146.484zM453.787 335.169c-97.18-30.687-205.375-5.889-279.667 68.403-81.477 81.477-103.424 203.731-57.936 307.515l25.077 57.213 153.539-153.539 60.34 60.34-153.539 153.539 57.213 25.077c103.783 45.488 226.038 23.541 307.515-57.936 74.261-74.261 99.071-182.4 68.438-279.553l293.638-293.638-181.019-181.019-293.599 293.599z" />
<glyph unicode="&#x1f5a8;" glyph-name="ic-24-outline-print" d="M298.667 192h-213.333v512h213.333v170.667h426.667v-170.667h213.333v-512h-213.333v-170.667h-426.667v170.667zM298.667 277.333v85.333h-42.667v85.333h512v-85.333h-42.667v-85.333h128v341.333h-682.667v-341.333h128zM640 362.667h-256v-256h256v256zM384 704h256v85.333h-256v-85.333zM298.667 490.667c-23.564 0-42.667 19.103-42.667 42.667s19.103 42.667 42.667 42.667c23.564 0 42.667-19.103 42.667-42.667s-19.103-42.667-42.667-42.667z" />
<glyph unicode="&#x1f5bc;" glyph-name="ic-24-outline-image" d="M896 326.439v420.228h-768v-467.726l142.417 116.725c11.993 9.829 28.374 12.378 42.787 6.658l150.161-59.602 194.377 139.907c15.77 11.351 37.216 10.613 52.169-1.793l186.089-154.397zM896 215.558l-215.186 178.538-186.556-134.278c-11.811-8.501-27.14-10.396-40.666-5.028l-148.516 58.949-148.536-121.74h739.46v23.558zM42.667 832h938.667v-725.333h-938.667v725.333zM426.667 576c0-70.692-57.305-128-128-128s-128 57.308-128 128c0 70.692 57.305 128 128 128s128-57.308 128-128z" />
<glyph unicode="&#x1f5d1;" glyph-name="ic-24-outline-bin" d="M725.333 106.667v512h85.333v-597.333h-597.333v597.333h85.333v-512h426.667zM298.667 746.667v128.177h426.667v-128.177h170.667v-85.333h-768v85.333h170.667zM384 746.667h256v42.844h-256v-42.844zM384 533.333h85.333v-341.333h-85.333v341.333zM554.667 533.333h85.333v-341.333h-85.333v341.333z" />
<glyph unicode="&#x1f5d8;" glyph-name="ic-24-outline-refresh" d="M853.401 444.865c1.503 152.010-99.43 291.673-253.058 332.837-136.319 36.526-279.444-14.61-362.299-125.922l-68.452 50.952c103.564 139.133 282.457 203.049 452.837 157.395 199.384-53.425 327.761-239.576 315.541-437.923l70.063-18.773-167.81-131.723-79.467 197.98 92.645-24.824zM170.599 451.135c-1.503-152.010 99.43-291.673 253.058-332.837 135.091-36.198 276.943 13.673 360.184 123.11l67.919-51.661c-104.040-136.782-281.345-199.117-450.188-153.875-199.384 53.425-327.761 239.576-315.541 437.923l-70.063 18.773 167.81 131.723 79.467-197.98-92.645 24.824z" />
<glyph unicode="&#x1f642;" glyph-name="ic-24-outline-user" d="M633.23 315.047c-37.381-28.661-80.336-46.059-125.267-46.059-43.048 0-84.282 15.971-120.538 42.516-2.86-2.194-5.915-4.574-9.143-7.133-23.689-18.778-47.392-40.005-69.395-63.106-60.244-63.251-95.554-127.572-95.554-186.786h-85.333c0 85.73 45.184 168.039 119.096 245.64 24.952 26.198 51.558 50.025 78.177 71.125 0.339 0.268 0.676 0.535 1.011 0.8-44.32 57.816-72.225 132.677-72.225 204.985 0 140.765 113.633 254.974 253.903 254.974s253.903-114.209 253.903-254.974c0-70.394-26.448-143.209-68.742-200.359 2.228-1.728 4.536-3.537 6.919-5.426 26.619-21.1 53.225-44.927 78.177-71.125 73.912-77.601 119.096-159.91 119.096-245.64h-85.333c0 59.215-35.309 123.536-95.554 186.786-22.002 23.1-45.705 44.328-69.395 63.106-5.054 4.007-9.682 7.573-13.806 10.677zM339.393 577.028c0-106.115 86.229-222.707 168.57-222.707s168.57 116.592 168.57 222.707c0 93.733-75.524 169.64-168.57 169.64s-168.57-75.907-168.57-169.64z" />
<glyph unicode="&#x1f6c8;" glyph-name="ic-24-outline-circle-info" d="M512-21.333c-259.206 0-469.333 210.128-469.333 469.333s210.128 469.333 469.333 469.333c259.206 0 469.333-210.128 469.333-469.333s-210.128-469.333-469.333-469.333zM512 64c212.077 0 384 171.923 384 384s-171.923 384-384 384c-212.077 0-384-171.923-384-384s171.923-384 384-384zM554.667 149.275l-85.333 0.117 0.469 341.333 85.333-0.117-0.469-341.333zM554.667 618.667h-85.333v85.333h85.333v-85.333z" />
<glyph unicode="&#x1f6d2;" glyph-name="ic-24-outline-shopping-cart" d="M239.422 746.667h699.245l-85.333-341.333-505.283-38.868 25.466-89.132h479.816v-85.333h-544.184l-170.667 597.333h-92.83v85.333h157.197l36.571-128zM373.333 0c-41.237 0-74.667 33.429-74.667 74.667s33.429 74.667 74.667 74.667c41.237 0 74.667-33.429 74.667-74.667s-33.429-74.667-74.667-74.667zM757.333 0c-41.237 0-74.667 33.429-74.667 74.667s33.429 74.667 74.667 74.667c41.237 0 74.667-33.429 74.667-74.667s-33.429-74.667-74.667-74.667zM263.803 661.333l60.321-211.123 461.342 35.488 43.909 175.635h-565.571z" />
<glyph unicode="&#xe1081;" glyph-name="ic-24-outline-upload" d="M554.667 698.824v-464.157h-85.333v464.157l-183.163-183.163-60.34 60.34 286.17 286.17 286.17-286.17-60.34-60.34-183.163 183.163zM213.333 21.333v85.333h597.333v-85.333h-597.333z" />
<glyph unicode="&#xe1082;" glyph-name="ic-24-outline-visibility_off" d="M254.519 234.396c-94.85 64.483-169.185 156.341-169.185 213.604 0 113.211 227.627 298.667 426.68 298.667 69.641 0 138.418-18.52 203.007-51.769l128.127 128.127 60.34-60.34-693.765-693.765-60.34 60.34 105.137 105.137zM650.998 630.876c-45.444 19.776-92.363 30.458-138.985 30.458-84.901 0-171.064-36.356-244.592-96.263-56.103-45.709-96.754-101.71-96.754-117.071 0-24.883 65.404-100.991 145.521-151.936l55.193 55.193c-19.264 27.963-30.047 61.489-30.047 96.743 0 94.251 76.415 170.667 170.667 170.667 35.214 0 68.742-10.755 96.742-30.048l42.256 42.256zM546.295 526.172c-10.619 4.661-22.244 7.161-34.295 7.161-47.123 0-85.333-38.21-85.333-85.333 0-12.055 2.505-23.682 7.162-34.294l112.467 112.467zM813.797 511.309l64.618 55.734c37.385-43.344 60.252-85.454 60.252-119.043 0-115.444-226.521-298.667-426.654-298.667-4.707 0-9.414 0.086-14.121 0.258l3.111 85.277c3.673-0.134 7.343-0.201 11.010-0.201 85.202 0 171.519 35.941 244.687 95.124 56.478 45.682 96.633 101.321 96.633 118.21 0 7.621-14.439 34.211-39.537 63.309z" />
<glyph unicode="&#xe1083;" glyph-name="ic-24-outline-zoom_in" d="M384 576v85.333h85.333v-85.333h85.333v-85.333h-85.333v-85.333h-85.333v85.333h-85.333v85.333h85.333zM664.225 352.284l261.722-257.892-59.893-60.783-262.724 258.88c-49.475-36.351-110.56-57.825-176.662-57.825-164.952 0-298.667 133.715-298.667 298.667s133.715 298.667 298.667 298.667c164.952 0 298.667-133.715 298.667-298.667 0-68.069-22.77-130.818-61.108-181.047zM426.667 319.997c117.824 0 213.333 95.51 213.333 213.333s-95.51 213.333-213.333 213.333c-117.824 0-213.333-95.51-213.333-213.333s95.51-213.333 213.333-213.333z" />
<glyph unicode="&#xe1084;" glyph-name="ic-24-outline-zoom_out" d="M426.667 319.997c117.824 0 213.333 95.51 213.333 213.333s-95.51 213.333-213.333 213.333c-117.824 0-213.333-95.51-213.333-213.333s95.51-213.333 213.333-213.333zM664.225 352.284l261.722-257.892-59.893-60.783-262.724 258.88c-49.475-36.351-110.56-57.825-176.662-57.825-164.952 0-298.667 133.715-298.667 298.667s133.715 298.667 298.667 298.667c164.952 0 298.667-133.715 298.667-298.667 0-68.069-22.77-130.818-61.108-181.047zM298.667 490.667h256v85.333h-256v-85.333z" />
<glyph unicode="&#xe1121;" glyph-name="ic-24-outline-list" d="M298.667 789.333v85.333h640v-85.333h-640zM298.667 533.333v85.333h640v-85.333h-640zM298.667 277.333v85.333h640v-85.333h-640zM213.333 874.667v-85.333h-128v85.333h128zM213.333 618.667v-85.333h-128v85.333h128zM213.333 362.667v-85.333h-128v85.333h128zM298.667 21.333v85.333h640v-85.333h-640zM213.333 106.667v-85.333h-128v85.333h128z" />
</font>
</defs>
</svg>
