<?xml version="1.0" standalone="no"?>
<!DOCTYPE svg PUBLIC "-//W3C//DTD SVG 1.1//EN" "http://www.w3.org/Graphics/SVG/1.1/DTD/svg11.dtd" >
<svg xmlns="http://www.w3.org/2000/svg">
<metadata>Generated by IcoMoon</metadata>
<defs>
<font id="icomoon" horiz-adv-x="1024">
<font-face units-per-em="1024" ascent="960" descent="-64" />
<missing-glyph horiz-adv-x="1024" />
<glyph unicode="&#x20;" horiz-adv-x="512" d="" />
<glyph unicode="&#x2b;" glyph-name="add" d="M512 746.667c24.064 0 43.093-19.029 43.093-43.093v-212.48h212.48c24.064 0 43.093-19.029 43.093-43.093s-19.029-43.093-43.093-43.093h-212.48v-212.48c0-24.064-19.029-43.093-43.093-43.093s-43.093 19.029-43.093 43.093v212.48h-212.48c-24.064 0-43.093 19.029-43.093 43.093s19.029 43.093 43.093 43.093h212.48v212.48c0 24.064 19.029 43.093 43.093 43.093z" />
<glyph unicode="&#x3f;" glyph-name="help" d="M512 874.667c0.127 0 0.277 0 0.427 0 235.406 0 426.24-190.834 426.24-426.24 0-0.15 0-0.3 0-0.45v0.023c0-0.127 0-0.277 0-0.427 0-235.406-190.834-426.24-426.24-426.24-0.15 0-0.3 0-0.45 0h0.023c-0.127 0-0.277 0-0.427 0-235.406 0-426.24 190.834-426.24 426.24 0 0.15 0 0.3 0 0.45v-0.023c0 0.127 0 0.277 0 0.427 0 235.406 190.834 426.24 426.24 426.24 0.15 0 0.3 0 0.45 0h-0.023zM512 789.333c-187.989 0-341.333-153.344-341.333-341.333s153.344-341.333 341.333-341.333c189.355 0 341.333 153.344 341.333 341.333s-153.344 341.333-341.333 341.333zM405.419 638.677c0 42.667 62.635 55.979 115.968 55.979 77.355 0 133.333-46.635 133.333-118.656 0-123.989-112-116.011-112-173.355 0-19.968-14.635-41.301-41.301-41.301-22.795 0.097-41.248 18.549-41.344 41.335v0.009c0 113.323 112 98.645 112 173.312 0 26.667-24.021 36.011-48 36.011-33.323 0-59.989-16-81.323-14.677s-38.699 18.688-37.333 41.344zM450.133 244.011c0-30.677 25.344-54.699 54.656-54.699 29.355 0 54.699 24.021 54.699 54.699 0 29.312-25.344 53.333-54.699 53.333-29.312 0-54.656-24.021-54.656-53.333z" />
<glyph unicode="&#xa7;" glyph-name="legal" d="M542.848 789.333c56.832 0 102.827-10.197 102.827-55.893 0-18.347-11.776-34.432-34.816-34.432-18.219 0-41.813 9.728-68.821 9.728-48.555 0-76.501-16.469-76.501-48.555 0-91.307 226.987-67.413 226.987-218.752 0.004-0.367 0.007-0.801 0.007-1.235 0-49.634-31.089-92.006-74.857-108.705l-0.798-0.267c18.091-23.040 25.472-51.029 25.472-79.787 0-92.16-56.747-144.768-162.005-144.768-56.107 0-125.867 13.355-125.867 64.171 1.28 16.768 13.227 31.531 33.835 31.531 12.672 0 53.333-15.104 88.747-15.104 56.747 0 82.219 16.469 82.219 53.461 0 111.061-227.84 67.413-227.84 225.365-0.019 0.824-0.030 1.795-0.030 2.769 0 50.152 28.863 93.563 70.884 114.529l0.741 0.335c-11.393 18.745-18.137 41.408-18.137 65.646 0 1.207 0.017 2.409 0.050 3.608l-0.004-0.176c0 85.547 55.893 136.533 157.867 136.533zM453.205 535.168c-25.515-9.045-44.117-32.853-44.416-60.032-0.384-31.147 14.805-41.941 148.864-97.067 36.992 12.373 53.461 29.611 53.461 55.125 0 28.8-15.616 37.845-157.909 101.973z" />
<glyph unicode="&#x21a6;" glyph-name="log-out" d="M170.667 192c0-70.692 57.308-128 128-128v0h170.667c24.021 0 42.667 18.688 42.667 42.667 0 24.021-18.688 42.667-42.667 42.667h-170.667c-24.021 0-42.667 18.688-42.667 42.667v512c0 24.021 18.688 42.667 42.667 42.667h170.667c24.021 0 42.667 18.688 42.667 42.667 0 24.021-18.688 42.667-42.667 42.667h-170.667c-70.692 0-128-57.308-128-128v0-512zM405.333 448c0-22.656 18.688-42.667 42.667-42.667h324.011l-97.365-97.323c-7.403-7.926-11.948-18.603-11.948-30.342 0-0.118 0-0.236 0.001-0.353v0.018c0-24.021 18.645-42.667 41.301-42.667 10.667 0 22.656 5.333 30.677 13.355l170.667 169.301c7.979 8.021 11.989 20.011 11.989 30.677s-4.011 22.656-11.989 30.677l-170.667 169.344c-7.442 8.166-18.122 13.27-29.995 13.27s-22.553-5.104-29.966-13.238l-0.029-0.032c-7.461-7.485-12.075-17.813-12.075-29.218 0-0.048 0-0.096 0-0.144v0.007c0-10.667 4.011-21.333 11.989-30.677l97.451-97.323h-324.053c-24.021 0-42.667-18.688-42.667-42.667z" />
<glyph unicode="&#x21c6;" glyph-name="swap-horizontal" d="M299.605 874.667c-13.696 0-23.253-3.669-31.573-11.989l-170.667-170.667c-7.454-7.937-12.033-18.65-12.033-30.433 0-0.086 0-0.172 0.001-0.258v0.013c0-10.667 4.053-21.333 11.989-29.355l170.667-171.947c7.641-7.45 18.096-12.045 29.625-12.045 0.37 0 0.739 0.005 1.107 0.014l-0.054-0.001c24.021 0 42.667 20.011 42.667 42.667 0 0.066 0.001 0.144 0.001 0.222 0 11.363-4.579 21.656-11.993 29.135l-98.685 98.642h366.677c24.021 0 42.667 20.011 42.667 42.667 0 24.021-18.688 42.667-42.667 42.667h-366.677l98.731 98.688c7.384 7.446 11.948 17.7 11.948 29.019 0 0.103 0 0.206-0.001 0.308v-0.016c0 22.656-17.323 42.667-41.728 42.667zM725.333 448c-24.021 0-42.667-18.688-42.667-42.667 0-10.667 4.693-20.565 13.355-29.355l97.28-98.645h-366.635c-22.656 0-42.667-18.688-42.667-42.667 0-22.656 20.011-42.667 42.667-42.667h366.677l-97.365-98.688c-8.619-8.747-13.312-18.645-13.312-29.312 0-24.021 18.688-42.667 42.667-42.667 0.301-0.008 0.656-0.012 1.011-0.012 11.534 0 21.998 4.576 29.678 12.012l170.656 170.656c7.425 7.668 12.001 18.132 12.001 29.666 0 0.356-0.004 0.71-0.013 1.064l0.001-0.052c0.008 0.301 0.012 0.656 0.012 1.011 0 11.534-4.576 21.998-12.012 29.678l-170.656 170.656c-7.668 7.425-18.132 12.001-29.666 12.001-0.356 0-0.71-0.004-1.064-0.013l0.052 0.001z" />
<glyph unicode="&#x21f5;" glyph-name="swap-vertical" d="M298.667 21.333c10.667 0 21.333 4.011 30.677 11.989l170.667 170.667c7.979 9.344 11.989 20.011 11.989 30.677 0 24.021-20.011 42.667-42.667 42.667-10.667 0-21.333-4.011-29.355-13.355l-98.645-97.28v366.635c0 24.021-18.688 42.667-42.667 42.667-24.021 0-42.667-18.688-42.667-42.667v-366.677l-98.688 97.365c-6.977 8.169-17.287 13.315-28.8 13.315-0.18 0-0.36-0.001-0.54-0.004h0.027c-24.021 0-42.667-20.011-42.667-42.667 0-10.667 4.011-21.333 11.989-30.677l170.667-170.667c9.344-7.979 20.011-11.989 30.677-11.989zM725.333 320c24.021 0 42.667 18.688 42.667 42.667v366.677l98.688-98.688c7.476-7.411 17.769-11.99 29.132-11.99 0.063 0 0.126 0 0.19 0h-0.010c25.344 0 42.667 18.688 42.667 42.667 0 0.066 0.001 0.144 0.001 0.222 0 11.363-4.579 21.656-11.993 29.135l0.003-0.003-170.667 171.947c-8.109 7.311-18.846 11.844-30.639 12.032h-0.038c-0.066 0-0.144 0.001-0.222 0.001-11.363 0-21.656-4.579-29.135-11.993l-171.944-171.986c-7.436-7.48-12.032-17.791-12.032-29.175 0-0.063 0-0.126 0-0.189v0.010c0-25.344 18.688-42.667 42.667-42.667 10.667 0 21.333 4.011 30.677 11.989l97.323 98.688v-366.677c0-24.021 18.688-42.667 42.667-42.667z" />
<glyph unicode="&#x2212;" glyph-name="minus" d="M767.573 405.333h-511.147c-0.152-0.002-0.332-0.003-0.512-0.003-23.517 0-42.581 19.064-42.581 42.581 0 0.031 0 0.062 0 0.093v-0.005c0 23.808 19.029 42.667 43.093 42.667h511.147c0.152 0.002 0.332 0.003 0.512 0.003 23.517 0 42.581-19.064 42.581-42.581 0-0.031 0-0.062 0-0.093v0.005c0-23.808-19.029-42.667-43.093-42.667z" />
<glyph unicode="&#x2295;" glyph-name="add-circle" d="M512 874.667c235.349 0 426.667-191.317 426.667-426.667s-191.317-426.667-426.667-426.667-426.667 191.317-426.667 426.667 191.317 426.667 426.667 426.667zM512 788.523c-0.076 0-0.166 0-0.256 0-187.924 0-340.267-152.343-340.267-340.267 0-0.090 0-0.18 0-0.27v0.014c0-0.076 0-0.166 0-0.256 0-187.924 152.343-340.267 340.267-340.267 0.090 0 0.18 0 0.27 0h-0.014c0.076 0 0.166 0 0.256 0 187.924 0 340.267 152.343 340.267 340.267 0 0.090 0 0.18 0 0.27v-0.014c0 0.076 0 0.166 0 0.256 0 187.924-152.343 340.267-340.267 340.267-0.090 0-0.18 0-0.27 0h0.014zM512 661.333c24.021 0 42.667-18.645 42.667-42.667v-128h128c24.021 0 42.667-18.645 42.667-42.667s-18.645-42.667-42.667-42.667l-127.573-0.427-0.427-127.573c0-24.021-18.645-42.667-42.667-42.667s-42.667 18.645-42.667 42.667v128l-127.573-0.427c-24.107 0-43.093 19.115-43.093 43.093s18.645 42.667 42.667 42.667h128v128c0 24.021 18.645 42.667 42.667 42.667z" />
<glyph unicode="&#x229d;" glyph-name="remove" d="M512.512 874.667c234.667 0 426.155-191.531 426.155-426.155-0.917-235.554-191.624-426.261-427.090-427.178h-0.088c-234.667 0-426.155 191.531-426.155 426.155-0.002 0.47-0.003 1.026-0.003 1.582 0 235.052 190.548 425.6 425.6 425.6 0.556 0 1.112-0.001 1.667-0.003h-0.086zM511.915 789.419c-188.757 0-341.333-152.405-341.333-340.907 0-188.544 152.576-341.931 341.333-341.931 188.715 0 341.333 153.387 341.333 341.931 0 0.013 0 0.028 0 0.043 0 188.254-152.61 340.864-340.864 340.864-0.165 0-0.33 0-0.495 0h0.026zM726.016 490.539c23.125 0 42.197-19.072 42.197-42.155 0.002-0.153 0.003-0.334 0.003-0.515 0-23.4-18.838-42.401-42.176-42.664h-427.673c-23.344 0.287-42.158 19.278-42.158 42.664 0 0.181 0.001 0.362 0.003 0.543v-0.027c0 23.083 19.072 42.155 42.155 42.155h427.648z" />
<glyph unicode="&#x23f0;" glyph-name="alarm" d="M736 832c0.127 0 0.277 0.001 0.427 0.001 88.13 0 159.573-71.443 159.573-159.573 0-0.15 0-0.3-0.001-0.45v0.023c-0.082-49.144-22.248-93.095-57.102-122.468l-0.242-0.198c9.344-32 14.677-65.323 14.677-100.011 0-0.143 0-0.313 0-0.483 0-81.9-28.658-157.106-76.493-216.138l0.504 0.642 69.333-102.699c3.968-6.656 6.656-16 6.656-23.979 0-22.656-20.011-42.667-42.667-42.667-14.417 0.069-27.105 7.409-34.593 18.538l-0.095 0.15-61.312 91.989c-55.885-42.445-126.623-67.995-203.328-67.995s-147.443 25.551-204.166 68.605l0.838-0.61-61.397-92.032c-7.75-11.321-20.607-18.653-35.177-18.653-0.278 0-0.556 0.003-0.833 0.008l0.041-0.001c-22.699 0-42.667 18.688-42.667 42.667 0 8.021 2.645 16 7.979 24.021l69.376 103.979c-47.311 57.592-75.992 132.054-75.992 213.215 0 0.507 0.001 1.013 0.003 1.519v-0.078c0 34.688 5.333 69.333 14.677 101.333-34.217 29.538-55.805 72.899-56.021 121.306v0.038c0.266 88.258 71.741 159.734 159.974 160h0.026c48 0 91.989-21.333 121.344-56.021 32 9.387 66.645 16 102.656 16 34.688 0 69.333-6.656 102.656-15.957 29.311 34.344 72.639 55.979 121.020 55.979 0.114 0 0.228 0 0.341 0h-0.018zM512 706.645c-142.062-0.097-257.201-115.222-257.323-257.269v-0.011c0.073-142.095 115.232-257.268 257.314-257.365h0.009c141.355 0 256 116.011 256 257.323 0 141.355-114.688 257.323-256 257.323zM288 746.667c-41.344 0-74.667-33.323-74.667-74.667 0-13.355 4.011-26.667 10.667-38.656 26.667 41.301 61.355 77.312 102.656 102.656-11.989 8.021-25.301 10.667-38.656 10.667zM736 746.667c-0.199 0.002-0.433 0.003-0.668 0.003-14.048 0-27.169-3.97-38.301-10.85l0.314 0.18c41.426-26.935 75.722-61.231 101.849-101.335l0.807-1.321c6.656 11.989 10.667 25.301 10.667 38.656 0 41.344-33.323 74.667-74.667 74.667zM469.333 446.677c0-10.667 5.333-22.656 13.355-30.677l69.291-66.688c7.472-7.385 17.748-11.948 29.089-11.948 0.093 0 0.186 0 0.28 0.001h-0.014c24.021 0 42.667 19.968 42.667 42.667 0.002 0.167 0.004 0.363 0.004 0.56 0 11.914-5.14 22.628-13.324 30.044l-0.034 0.031-55.979 54.656v134.656c0 24.021-18.688 42.667-42.667 42.667-22.656 0-42.667-18.645-42.667-42.667v-153.301z" />
<glyph unicode="&#x25f9;" glyph-name="send" d="M881.792 818.773c12.416-11.392 15.531-29.013 10.368-45.653l-270.677-703.061c-11.392-30.080-38.4-48.725-69.461-48.725h-3.115c-32.723 0.788-60.15 22.584-69.364 52.379l-0.14 0.527-80.853 261.291-260.267 80.896c-30.241 8.875-52.098 35.992-52.947 68.341l-0.002 0.096c-0.047 0.994-0.073 2.158-0.073 3.329 0 31.751 19.572 58.931 47.31 70.132l0.508 0.181 703.061 270.635c15.573 6.229 33.195 2.091 45.653-10.368zM738.688 615.509l-256.171-258.176 70.528-227.115 185.6 485.291zM678.528 675.669l-485.291-186.667 228.096-70.485 257.195 257.152z" />
<glyph unicode="&#x2606;" glyph-name="star" d="M512 874.667c16 0 30.677-9.344 38.656-24.021l107.989-219.989 244.053-35.968c17.28-2.688 35.968-16.043 35.968-40.021 0-11.989-4.011-24.021-11.989-32l-176-171.989 41.301-242.688c5.333-26.667-17.323-49.323-42.667-49.323-0.192-0.004-0.419-0.006-0.646-0.006-7.134 0-13.804 1.985-19.489 5.433l0.167-0.094-217.344 113.323-217.344-113.323c-5.517-3.354-12.188-5.339-19.322-5.339-0.227 0-0.454 0.002-0.68 0.006h0.034c-26.667 0-48 26.667-42.667 49.323l42.667 242.688-177.408 171.989c-7.936 8.021-11.947 20.011-11.947 32 0 20.011 16 37.333 36.011 40.021l244.011 35.968 107.947 220.032c8.064 13.312 22.741 23.979 38.699 23.979zM512 736l-80-162.688c-6.656-13.312-18.688-22.613-32-23.979l-181.333-26.667 130.688-126.677c10.667-10.667 14.635-21.333 11.947-37.333l-30.635-180.011 161.323 85.333c6.656 2.688 13.355 4.011 20.011 4.011s13.355-1.323 20.011-3.968l161.323-85.333-30.677 179.968c-0.547 2.463-0.86 5.292-0.86 8.194 0 11.526 4.941 21.898 12.82 29.113l0.030 0.027 130.688 126.677-180.011 26.667c-14.677 2.688-26.667 10.667-33.323 24.021l-80 162.645z" />
<glyph unicode="&#x2661;" glyph-name="heart" d="M706.688 810.667c129.28 0 231.979-105.344 231.979-233.344 0-58.667-19.925-118.741-66.688-164.011l-330.667-320c-7.139-7.381-17.133-11.963-28.196-11.963-0.392 0-0.783 0.006-1.173 0.017l0.057-0.001c-0.079-0.001-0.172-0.001-0.265-0.001-11.342 0-21.618 4.562-29.093 11.951l0.004-0.004-329.301 320c-45.312 44.075-68.011 104.064-68.011 164.011 0 128 104.021 233.344 232.021 233.344 61.312 0 120.619-24.661 163.968-68.011l30.677-30.635 30.677 30.635c42.080 41.817 99.992 67.746 163.96 68.011h0.051zM706.688 725.333c-37.333 0-76.032-16-104.021-43.989l-59.989-60.032c-7.911-7.856-18.669-12.854-30.592-13.309l-0.085-0.003c-10.667 0-21.333 5.333-29.355 13.355l-61.269 61.312c-26.811 26.25-63.503 42.5-103.989 42.667h-0.032c-81.323 0-146.688-66.688-146.688-148.011 0-37.333 13.611-74.368 42.667-102.656l298.667-290.688 298.667 290.688c27.122 26.393 43.958 63.238 43.989 104.016v0.006c0 79.957-66.645 146.645-147.968 146.645z" />
<glyph unicode="&#x2699;" glyph-name="settings" d="M657.536 814.805l-4.096-57.131 58.496-34.005 48.981 32.683c6.462 4.271 14.392 6.814 22.915 6.814 0.554 0 1.105-0.011 1.654-0.032l-0.079 0.002c50.304 0 144.171-163.499 144.171-219.008 0-14.933-7.808-30.592-23.125-38.059l-53.035-25.856v-65.28l53.035-25.856c13.829-7.095 23.128-21.257 23.128-37.59 0-0.165-0.001-0.329-0.003-0.493v0.025c0-51.968-91.691-219.008-144.213-219.008-0.439-0.016-0.955-0.026-1.473-0.026-8.549 0-16.5 2.558-23.131 6.949l0.156-0.097-48.981 32.64-58.453-32.683 4.053-58.453c3.413-48.512-70.059-59.861-145.536-59.861-67.968 0-149.077 8.832-145.536 59.861l4.096 58.453-58.496 32.683-48.981-32.683c-6.462-4.271-14.392-6.814-22.915-6.814-0.554 0-1.105 0.011-1.654 0.032l0.079-0.002c-50.304 0-144.171 163.499-144.171 219.008 0 14.933 7.808 30.592 23.125 38.059l53.035 25.856v65.28l-53.035 25.856c-13.829 7.095-23.128 21.257-23.128 37.59 0 0.165 0.001 0.329 0.003 0.493v-0.025c0 57.088 94.379 219.008 145.536 219.008 6.827 0 14.933-1.365 23.125-6.827l48.981-32.64 58.453 34.005-4.053 57.173c-3.413 47.573 67.243 59.008 137.728 59.776l7.808 0.043c68.011 0 149.163-8.875 145.536-59.861zM512 788.992c-19.029 0-38.101-1.365-58.453-5.461l4.053-47.616c1.365-16.213-8.021-31.488-21.76-39.424l-103.381-59.904c-6.827-2.731-13.611-5.419-21.76-5.419s-16.469 2.475-23.125 6.827l-42.155 27.179c-24.491-28.587-43.52-62.592-57.173-97.963l43.52-21.76c15.275-7.595 24.533-23.125 24.533-38.059v-118.357c0-16.299-9.813-30.72-24.491-38.059l-43.52-21.76c13.611-36.736 32.64-70.741 57.131-99.328l42.155 27.221c6.656 4.267 14.933 6.827 23.125 6.827 8.149 0 14.933-1.493 21.76-5.461l103.381-59.861c13.739-7.936 23.125-23.168 21.76-39.424l-4.096-47.616c20.395-4.096 39.467-5.461 58.496-5.461s38.101 1.365 58.453 5.461l-4.053 47.616c-1.365 16.213 8.021 31.488 21.76 39.424l103.381 59.861c5.859 3.421 12.899 5.441 20.41 5.441 0.475 0 0.947-0.008 1.418-0.024l-0.068 0.002c8.149 0 16.469-2.475 23.125-6.827l42.155-27.179c23.83 28.205 43.2 61.13 56.443 97.023l0.731 2.262-43.52 20.437c-14.64 7.216-24.534 22.032-24.534 39.16 0 0.093 0 0.185 0.001 0.278v-0.014 116.992c0 16.299 9.259 31.829 24.491 39.424l43.52 21.76c-13.611 35.413-32.64 69.376-57.131 97.963l-42.155-27.221c-6.656-4.267-14.933-6.827-23.125-6.827-8.149 0-14.933 2.731-21.76 5.461l-103.381 59.861c-13.739 7.936-23.125 23.168-21.76 39.424l4.096 47.616c-17.002 3.504-36.541 5.51-56.549 5.51-0.685 0-1.369-0.002-2.053-0.007l0.105 0.001zM511.36 618.667c94.628-0.073 171.319-76.764 171.392-171.385v-0.007c0-93.867-76.203-170.027-171.392-170.027-93.893 0.024-170.002 76.133-170.027 170.025v0.002c0 93.867 76.16 171.392 170.027 171.392zM512 533.248c-47.2-0.289-85.386-38.474-85.675-85.647v-0.027c0-46.251 39.424-85.675 85.675-85.675 47.2 0.289 85.386 38.474 85.675 85.647v0.027c0 0.102 0.001 0.222 0.001 0.342 0 47.128-38.205 85.333-85.333 85.333-0.12 0-0.241 0-0.361-0.001h0.019z" />
<glyph unicode="&#x2705;" glyph-name="check-circle" d="M512 874.667c0.127 0 0.277 0 0.427 0 235.406 0 426.24-190.834 426.24-426.24 0-0.15 0-0.3 0-0.45v0.023c0-0.127 0-0.277 0-0.427 0-235.406-190.834-426.24-426.24-426.24-0.15 0-0.3 0-0.45 0h0.023c-0.127 0-0.277 0-0.427 0-235.406 0-426.24 190.834-426.24 426.24 0 0.15 0 0.3 0 0.45v-0.023c0 0.127 0 0.277 0 0.427 0 235.406 190.834 426.24 426.24 426.24 0.15 0 0.3 0 0.45 0h-0.023zM512 789.333c-189.355 0-341.333-152.021-341.333-341.333 0-189.355 152.021-341.333 341.333-341.333 189.355 0 341.333 152.021 341.333 341.333 0 189.355-152.021 341.333-341.333 341.333zM704 602.667c24.021 0 43.989-20.011 43.989-41.344 0-10.667-2.645-21.333-13.312-32l-272-270.677c-7.771-8.073-18.616-13.14-30.646-13.312h-0.032c-10.667 0-20.011 4.011-29.355 13.355l-115.925 115.925c-7.479 7.943-12.075 18.674-12.075 30.478 0 0.085 0 0.17 0.001 0.255v-0.013c0 24.021 20.053 42.667 42.667 42.667 12.032 0 20.053-4.011 29.355-13.355l86.656-85.333 241.323 241.365c7.476 7.411 17.769 11.99 29.132 11.99 0.078 0 0.156 0 0.234-0.001h-0.012z" />
<glyph unicode="&#x270f;" glyph-name="edit" d="M745.301 874.667c0.314 0.004 0.685 0.006 1.057 0.006 24.803 0 47.184-10.375 63.038-27.022l0.034-0.036 98.176-97.195c19.029-20.053 31.061-45.099 31.061-72.107 0-24.064-9.003-49.109-31.061-71.168l-500.949-501.931c-12.032-12.032-27.051-23.040-41.088-25.088l-226.432-57.088c-2.987-1.024-5.973-1.024-10.027-1.024-0.143-0.002-0.311-0.003-0.48-0.003-11.696 0-22.218 5.022-29.529 13.028l-0.028 0.031c-9.045 9.003-16.043 22.016-13.013 34.048l0.981 5.035 54.101 218.411c4.011 17.024 12.032 32.043 23.040 44.075l506.965 506.965c18.974 19.040 45.164 30.877 74.119 31.061h0.035zM230.315 284.544l-2.987-2.987c-1.024-1.024-2.005-5.035-2.987-9.045l-37.12-148.267 146.304 35.072c3.797 0.476 7.194 1.893 10.041 4.008l-0.057-0.040 4.011 4.011-117.205 117.248zM615.040 666.283l-322.603-322.645 115.2-116.224 323.627 323.627-116.224 115.2zM742.272 787.499c-3.968 0-7.979-0.981-11.008-4.992l-56.107-56.107 117.248-117.248 56.107 57.131c2.458 2.337 3.987 5.631 3.987 9.283 0 0.247-0.007 0.492-0.021 0.735l0.002-0.034c-0.267 5.152-2.504 9.735-5.966 13.049l-93.191 93.191c-2.987 4.011-7.040 4.992-11.051 4.992z" />
<glyph unicode="&#x2713;" glyph-name="done" d="M355.243 204.544l-172.373 172.373c-7.729 7.238-12.546 17.505-12.546 28.897 0 0.131 0.001 0.262 0.002 0.393v-0.020c0 24.064 19.84 42.88 42.837 42.88 11.52 0 20.907-4.181 29.269-12.544l143.147-141.056 395.989 397.056c8.363 7.296 19.883 11.477 29.269 11.477 22.997 0 42.837-18.773 42.837-41.813 0-11.477-4.181-21.931-10.453-30.293l-427.349-427.349c-7.595-7.745-18.168-12.546-29.863-12.546-0.151 0-0.303 0.001-0.454 0.002h0.023c-0.128-0.001-0.279-0.002-0.43-0.002-11.695 0-22.268 4.801-29.856 12.539l-0.007 0.007z" />
<glyph unicode="&#x2b73;" glyph-name="download" d="M256 21.333h512c70.692 0 128 57.308 128 128v0 170.667c0 24.021-18.688 42.667-42.667 42.667-24.021 0-42.667-18.688-42.667-42.667v-170.667c0-24.021-18.688-42.667-42.667-42.667h-512c-24.021 0-42.667 18.688-42.667 42.667v170.667c0 24.021-18.688 42.667-42.667 42.667-24.021 0-42.667-18.688-42.667-42.667v-170.667c0-70.692 57.308-128 128-128v0zM512 277.333c10.667 0 22.656 3.968 30.677 11.947l169.344 170.325c8.19 7.097 13.34 17.514 13.34 29.134 0 0.513-0.010 1.023-0.030 1.531l0.002-0.073c0 22.613-18.688 41.216-42.667 41.216-10.667 0-22.656-3.968-30.677-11.947l-97.323-97.109v409.728c0 23.936-20.011 42.581-42.667 42.581-24.021 0-42.667-18.645-42.667-42.581v-409.685l-97.323 97.109c-8.12 7.277-18.857 11.78-30.643 11.946h-0.034c-24.021 0-42.667-18.603-42.667-42.539 0-10.667 4.011-21.333 13.355-29.269l169.301-170.283c8.021-8.021 20.011-11.989 30.677-11.989z" />
<glyph unicode="&#x1f310;" glyph-name="website" d="M512 874.667c234.667 0 426.667-192 426.667-426.667 0-0.127 0-0.277 0-0.427 0-235.406-190.834-426.24-426.24-426.24-0.15 0-0.3 0-0.45 0h0.023c-0.127 0-0.277 0-0.427 0-235.406 0-426.24 190.834-426.24 426.24 0 0.15 0 0.3 0 0.45v-0.023c0 0.127 0 0.277 0 0.427 0 235.406 190.834 426.24 426.24 426.24 0.15 0 0.3 0 0.45 0h-0.023zM341.333 405.333h-168.021c18.688-152.021 138.667-274.688 296.021-296.021-53.333 68.053-98.688 173.355-128 296.021zM621.355 405.333h-192c47.957-200.021 133.291-290.688 160-283.989 18.645 3.968 42.667 59.989 42.667 160 0 36.011-4.011 77.312-10.667 123.989zM850.645 405.333h-144c6.699-42.667 9.387-84.011 9.387-122.667 0-42.667-4.053-82.688-12.032-116.011 84.011 58.667 129.323 130.688 146.688 238.677zM328.021 734.677c-90.667-60.032-141.312-145.365-154.667-244.011h152.021c-5.947 38.095-9.345 82.032-9.345 126.762 0 0.436 0 0.871 0.001 1.306v-0.068c0 42.667 4.011 81.323 12.032 116.011zM444.075 778.667c-18.688 0-44.032-56.021-44.032-160 0-37.333 2.688-80 10.667-128h193.323c-48 197.333-129.323 288-160 288zM566.699 785.323c54.613-74.667 97.28-177.323 125.355-294.656h158.635c-21.333 152.021-134.656 269.355-283.989 294.656z" />
<glyph unicode="&#x1f381;" glyph-name="giftcard" d="M630.656 874.667c82.688 0 150.656-67.883 150.656-149.077 0-23.979-6.656-43.947-16-65.237h66.688c58.667 0 106.667-47.915 106.667-105.173v-384.683c-0.218-58.788-47.865-106.375-106.655-106.496h-640.012c-58.802 0.121-106.449 47.708-106.667 106.475v384.704c0 57.259 48 105.173 106.667 105.173h65.323c-9.301 21.333-14.635 41.259-14.635 65.237 0.411 82.257 67.055 148.812 149.308 149.077h0.026c0.133 0 0.29 0.001 0.448 0.001 48.623 0 91.643-23.993 117.866-60.785l0.299-0.442c28.075 37.248 72.064 61.227 120.064 61.227zM469.333 406.101h-298.667v-235.605c0-10.667 9.344-21.333 21.333-21.333h277.333v256.939zM853.333 406.101h-298.667v-256.896h277.333c11.989 0 21.333 10.667 21.333 21.291v235.605zM469.333 576.469h-277.333c-11.989 0-21.333-9.301-21.333-21.291v-63.872h298.667v85.12zM832 576.469h-277.333v-85.163h298.667v63.872c0 11.989-9.344 21.333-21.333 21.333zM391.979 789.461c0 0 0 0 0 0-35.301 0-63.927-28.581-64-63.865v-0.007c0-35.968 28.032-65.237 64-65.237 34.688 0 64 29.269 64 65.237-0.545 35.099-28.89 63.399-63.955 63.872h-0.045zM630.656 789.461c-34.645 0-64-29.269-64-63.872 0-35.968 29.355-65.237 64-65.237 36.011 0 65.323 29.269 65.323 65.237 0 34.56-29.312 63.872-65.28 63.872z" />
<glyph unicode="&#x1f441;" glyph-name="visibility" d="M512 746.667c157.355 0 273.323-93.355 417.323-272 5.818-6.994 9.35-16.071 9.35-25.972 0-0.244-0.002-0.488-0.006-0.731l0.001 0.037c0.004-0.207 0.006-0.451 0.006-0.695 0-9.901-3.531-18.977-9.404-26.038l0.054 0.066c-144-180.011-259.968-272-417.323-272-148.011 0-253.355 72.021-417.323 272-5.818 6.994-9.35 16.071-9.35 25.972 0 0.244 0.002 0.488 0.006 0.731l-0.001-0.037c0 9.344 2.688 18.688 9.344 26.667 144 178.688 260.011 272 417.323 272zM512 661.333c-107.989 0-200.021-59.989-329.344-213.333 125.397-149.333 212.011-209.323 329.344-213.333 107.989 0 200.021 59.989 329.344 213.333-125.397 149.333-212.011 209.323-329.344 213.333zM512 576c70.698-0.024 128-57.342 128-128.043 0-70.716-57.327-128.043-128.043-128.043-0.015 0-0.030 0-0.045 0h0.002c-70.698 0.024-128 57.342-128 128.043 0 70.716 57.327 128.043 128.043 128.043 0.015 0 0.030 0 0.045 0h-0.002zM512 490.667c-24.021 0-42.667-20.011-42.667-42.667 0-24.021 18.688-43.989 42.667-43.989 24.021 0 42.667 20.011 42.667 43.989 0 22.656-18.688 42.667-42.667 42.667z" />
<glyph unicode="&#x1f4b3;" glyph-name="credit-card" d="M832 746.667c57.344 0 106.667-43.947 106.667-100.011v-390.656c0-57.344-43.947-106.667-100.011-106.667h-646.656c-57.344 0-106.667 43.947-106.667 100.011v390.656c0 56.021 43.947 106.667 100.011 106.667h646.656zM853.333 490.667h-682.667v-234.667c0-10.752 6.656-21.333 17.323-21.333h644.011c10.667 0 21.333 6.656 21.333 17.323v238.677zM836.011 661.333h-644.011c-10.667 0-21.333-8.021-21.333-17.323v-68.011h682.667v64c0 10.667-6.571 21.333-17.323 21.333zM469.333 405.333c24.021 0 42.667-20.011 42.667-42.667s-17.28-42.667-38.656-42.667h-174.677c-24.021 0-42.667 18.688-42.667 42.667 0 21.333 17.28 42.667 38.656 42.667h174.677z" />
<glyph unicode="&#x1f4c6;" glyph-name="calendar" d="M640.512 789.333c27.093 0 42.155-20.992 42.155-42.155v-43.179h64.256c0.178 0.001 0.388 0.002 0.599 0.002 58.439 0 105.813-47.374 105.813-105.813 0-0.211-0.001-0.421-0.002-0.631v0.032-384.512c0.001-0.178 0.002-0.388 0.002-0.599 0-58.439-47.374-105.813-105.813-105.813-0.211 0-0.421 0.001-0.631 0.002h-469.813c-0.178-0.001-0.388-0.002-0.599-0.002-58.439 0-105.813 47.374-105.813 105.813 0 0.211 0.001 0.421 0.002 0.631v-0.032 384.512c0.024 58.759 47.652 106.386 106.408 106.411h64.258v43.179c0 21.077 15.872 42.155 42.496 42.155 0.267 0.006 0.581 0.010 0.897 0.010 23.164 0 41.941-18.778 41.941-41.941 0-0.078 0-0.157-0.001-0.235v0.012-43.179h170.667v43.179c0 21.077 13.056 42.155 43.179 42.155zM768 446.976h-512v-233.899c0-12.032 9.045-21.077 21.077-21.077h469.845c0.141-0.003 0.308-0.005 0.475-0.005 11.381 0 20.608 9.227 20.608 20.608 0 0.167-0.002 0.333-0.006 0.499v-0.025 233.899zM746.923 618.667h-469.845c-0.141 0.003-0.308 0.005-0.475 0.005-11.381 0-20.608-9.227-20.608-20.608 0-0.167 0.002-0.333 0.006-0.499v0.025-64.256h512v64.256c0.003 0.141 0.005 0.308 0.005 0.475 0 11.381-9.227 20.608-20.608 20.608-0.167 0-0.333-0.002-0.499-0.006h0.025zM298.155 319.829c0 23.564 19.103 42.667 42.667 42.667s42.667-19.103 42.667-42.667v0c0-0.051 0-0.111 0-0.171 0-23.376-18.95-42.325-42.325-42.325-0.060 0-0.12 0-0.18 0h0.009c-0.051 0-0.111 0-0.171 0-23.504 0-42.57 19.006-42.666 42.487v0.009zM468.821 319.829c0 23.765 20.053 42.837 43.52 42.837 23.564 0 42.667-19.103 42.667-42.667s-19.103-42.667-42.667-42.667v0c-23.595 0-43.52 18.859-43.52 42.496zM640.512 319.829c0 23.564 19.103 42.667 42.667 42.667s42.667-19.103 42.667-42.667v0c-0.097-23.491-19.162-42.496-42.666-42.496-0.060 0-0.12 0-0.18 0h0.009c-0.051 0-0.111 0-0.171 0-23.376 0-42.325 18.95-42.325 42.325 0 0.060 0 0.12 0 0.18v-0.009z" />
<glyph unicode="&#x1f50d;" glyph-name="search" d="M405.333 874.667c177.323 0 321.323-143.957 321.323-319.872 0.001-0.296 0.002-0.646 0.002-0.996 0-73.557-24.55-141.381-65.904-195.723l0.58 0.794 265.344-265.216c16-16 16-42.667 0-59.989-16-15.957-40.021-15.957-57.344-2.645l-267.989 267.904c-53.588-40.775-121.449-65.324-195.043-65.324-0.34 0-0.68 0.001-1.020 0.002h0.052c-176 0-320 143.957-320 321.195 0 175.915 144 319.872 320 319.872zM405.333 789.333c-129.475-0.17-234.4-105.035-234.667-234.47v-0.026c0-130.603 105.344-235.904 234.667-235.904 0.139 0 0.305 0 0.47 0 130.074 0 235.52 105.446 235.52 235.52 0 0.15 0 0.3 0 0.45v-0.023c0 129.195-105.344 234.453-235.989 234.453z" />
<glyph unicode="&#x1f512;" glyph-name="ic-db_action_lock-close_24" d="M512 831.445c114.688 0 212.821-89.301 213.248-213.291v-42.112c0.013 0 0.028 0 0.043 0 47.152 0 85.376-38.224 85.376-85.376v0-341.376c0-47.128-38.205-85.333-85.333-85.333v0h-426.709c-47.128 0-85.333 38.205-85.333 85.333v0 341.376c0 44.971 35.115 85.333 85.461 85.333v42.155c0 0.013 0 0.028 0 0.043 0 117.774 95.474 213.248 213.248 213.248v0zM725.333 490.667h-426.709v-341.376h426.709v341.376zM512 405.333c21.888 0 42.581-17.792 42.667-42.667v-85.333c0-23.564-19.103-42.667-42.667-42.667s-42.667 19.103-42.667 42.667v0 85.333c0 23.564 19.103 42.667 42.667 42.667v0zM512 746.112c-68.139 0-127.573-57.173-127.915-127.957-0.085-14.037-0.085-28.075 0-42.112h255.829v42.112c0 0.013 0 0.028 0 0.043 0 70.645-57.269 127.915-127.915 127.915v0z" />
<glyph unicode="&#x1f513;" glyph-name="ic-db_action_lock-open_24" d="M512 874.667c98.936-0.011 182.138-67.368 206.258-158.726l0.334-1.488c0.703-2.9 1.106-6.23 1.106-9.654 0-23.564-19.103-42.667-42.667-42.667-19.467 0-35.889 13.037-41.011 30.856l-0.074 0.301c-14.819 55.503-64.644 95.717-123.862 95.717-70.548 0-127.765-57.073-127.999-127.566v-0.022c-0.085-28.459-0.085-56.96 0-85.419h341.248c47.128 0 85.333-38.205 85.333-85.333v0-341.376c0-47.128-38.205-85.333-85.333-85.333v0h-426.709c-47.128 0-85.333 38.205-85.333 85.333v0 341.376c0 44.971 35.413 85.333 85.461 85.333-0.042 12.677-0.066 27.69-0.066 42.709 0 15.011 0.024 30.016 0.072 45.015l-0.006-2.306c0 117.774 95.474 213.248 213.248 213.248v0zM725.333 149.291v341.376h-426.709v-341.376h426.709zM512 405.333c21.888 0 42.581-17.792 42.667-42.667 0.085-28.416 0.085-56.875 0-85.333 0-23.564-19.103-42.667-42.667-42.667s-42.667 19.103-42.667 42.667v0c-0.085 28.416-0.085 56.875 0 85.333 0 23.564 19.103 42.667 42.667 42.667v0z" />
<glyph unicode="&#x1f514;" glyph-name="alert" d="M512 874.667c23.040 0 42.069-19.029 42.069-43.093v-46.080l1.024 0.043c131.243-21.035 212.395-134.229 212.395-302.507l1.024-120.149c0-78.123 22.016-107.179 65.109-135.253 16.043-9.984 23.040-30.037 18.048-48.043-5.665-17.559-21.862-30.037-40.974-30.037-0.040 0-0.080 0-0.12 0h-159.311c-5.973-71.125-66.133-128.213-138.24-128.213-72.884 0.059-132.618 56.287-138.252 127.731l-0.031 0.482h-161.28c-19.072 0-35.115 11.989-41.131 30.037-1.043 3.538-1.642 7.603-1.642 11.808 0 15.129 7.765 28.444 19.527 36.177l0.163 0.101c44.075 29.013 65.109 56.064 65.109 135.211v120.192c0 169.259 83.2 283.435 213.419 303.445v45.099c0 24.021 19.029 43.051 43.093 43.051zM565.12 149.547h-104.235c5.035-24.064 26.027-42.069 52.139-42.069 25.045 0 46.080 18.005 52.053 42.069zM511.019 704.384c-106.24 0-170.368-83.115-170.368-221.312v-120.192c0.183-3.647 0.287-7.92 0.287-12.217 0-42.277-10.1-82.196-28.019-117.474l0.681 1.478h396.8c-17.821 34.342-28.273 74.978-28.273 118.054 0 3.573 0.072 7.129 0.214 10.666l-0.016-0.507v120.192c0 138.197-64.128 221.312-171.349 221.312z" />
<glyph unicode="&#x1f515;" glyph-name="alert-off" d="M767.488 440.405l1.024-120.192c0-78.123 22.016-107.179 65.109-135.253 16.043-9.984 23.040-30.037 18.048-48.043-5.665-17.559-21.862-30.037-40.974-30.037-0.040 0-0.080 0-0.12 0h-159.311c-5.973-71.125-66.133-128.213-138.24-128.213-72.884 0.059-132.618 56.287-138.252 127.731l-0.031 0.482h-41.131l85.12 85.12h291.669c-17.821 34.342-28.273 74.978-28.273 118.054 0 3.573 0.072 7.129 0.214 10.666l-0.016-0.507v120.192c0 5.035-0.085 10.027-0.256 14.933l76.501 76.459c5.888-28.203 8.96-58.795 8.96-91.392zM512 832c23.040 0 42.069-19.029 42.069-43.093v-46.080l1.024 0.043c46.421-7.424 86.613-26.453 119.083-55.296l109.781 109.781c7.665 7.41 18.12 11.977 29.641 11.977 23.564 0 42.667-19.103 42.667-42.667 0-11.521-4.567-21.976-11.989-29.653l-663.711-663.711c-7.665-7.41-18.12-11.977-29.641-11.977-23.564 0-42.667 19.103-42.667 42.667 0 11.521 4.567 21.976 11.989 29.653l129.993 129.908c3.541 15.445 5.248 33.877 5.248 56.661v120.192c0 169.259 83.2 283.435 213.419 303.445v45.099c0 24.021 19.029 43.051 43.093 43.051zM565.12 106.88h-104.235c5.035-24.064 26.027-42.069 52.139-42.069 25.045 0 46.080 18.005 52.053 42.069zM511.019 661.717c-106.24 0-170.368-83.115-170.368-221.312v-86.315l273.024 272.939c-27.221 22.613-61.824 34.688-102.656 34.688z" />
<glyph unicode="&#x1f553;" glyph-name="schedule" d="M512 874.667c235.349 0 426.667-191.317 426.667-426.667s-191.317-426.667-426.667-426.667-426.667 191.317-426.667 426.667 191.317 426.667 426.667 426.667zM512 788.523c-0.076 0-0.166 0-0.256 0-187.924 0-340.267-152.343-340.267-340.267 0-0.090 0-0.18 0-0.27v0.014c0-0.076 0-0.166 0-0.256 0-187.924 152.343-340.267 340.267-340.267 0.090 0 0.18 0 0.27 0h-0.014c0.076 0 0.166 0 0.256 0 187.924 0 340.267 152.343 340.267 340.267 0 0.090 0 0.18 0 0.27v-0.014c0 0.076 0 0.166 0 0.256 0 187.924-152.343 340.267-340.267 340.267-0.090 0-0.18 0-0.27 0h0.014zM469.333 443.008v218.325c0 22.016 21.333 42.667 42.667 42.667s42.667-21.333 42.667-42.667l0.427-196.267 115.157-114.219c8.661-8.107 13.227-19.157 13.227-30.293 0-20.779-16.512-41.131-44.459-41.131-11.52 0-22.784 3.797-29.867 11.349l-125.781 126.165c-7.279 6.661-12.338 15.643-14.002 25.767l-0.035 0.26z" />
<glyph unicode="&#x1f5a8;" glyph-name="print" d="M683.861 874.667c45.952 0 83.925-37.973 83.925-84.907v-85.973h42.965c70.582-0.121 127.769-57.294 127.915-127.858v-255.843c-0.145-70.578-57.333-127.751-127.903-127.872h-42.977v-85.931c0-46.976-37.973-84.949-83.925-84.949h-343.723c-45.952 0-83.925 37.973-83.925 84.907v85.973h-42.965c-70.582 0.121-127.769 57.294-127.915 127.858v255.843c0.145 70.578 57.333 127.751 127.903 127.872h42.977v85.973c0 46.933 37.973 84.907 83.925 84.907zM682.88 277.12h-341.76v-170.837h341.76v170.837zM810.752 618.88h-597.504c-23.245-0.263-41.987-19.168-41.987-42.451 0-0.181 0.001-0.362 0.003-0.542v0.027-255.829c-0.002-0.153-0.003-0.334-0.003-0.515 0-23.282 18.742-42.187 41.962-42.451h42.99c0 46.976 36.949 85.931 83.925 85.931h343.723c46.933 0 83.925-38.955 83.925-85.931h42.965c23.245 0.263 41.987 19.168 41.987 42.451 0 0.181-0.001 0.362-0.003 0.542v-0.027 255.829c0.002 0.153 0.003 0.334 0.003 0.515 0 23.282-18.742 42.187-41.962 42.451h-0.025zM682.88 788.736h-341.76v-84.907h341.76v84.907zM256.213 490.667c0 23.808 19.072 42.667 42.155 42.667h86.315c23.125 0 42.197-18.859 42.197-42.667s-19.072-42.667-42.197-42.667h-86.315c-23.308 0.121-42.156 19.043-42.156 42.367 0 0.105 0 0.21 0.001 0.315v-0.016z" />
<glyph unicode="&#x1f5b9;" glyph-name="document" d="M597.333 874.667c11.989 0 22.656-4.011 30.677-13.355l170.667-170.667c7.405-7.143 12.004-17.152 12.004-28.236 0-0.378-0.005-0.755-0.016-1.131l0.001 0.055v-597.333c0-24.021-18.688-42.667-42.667-42.667h-512c-24.021 0-42.667 18.688-42.667 42.667v768c0 24.021 18.688 42.667 42.667 42.667zM512 789.333h-213.333v-682.667h426.667v469.333h-170.667c-24.021 0-42.667 20.011-42.667 42.667v170.667zM597.333 772.011v-110.677h110.677l-110.677 110.677zM597.333 277.333h-170.667c-24.021 0-42.667-18.688-42.667-42.667 0-24.021 18.688-42.667 42.667-42.667h170.667c24.021 0 42.667 18.688 42.667 42.667 0 24.021-18.688 42.667-42.667 42.667zM597.333 448h-170.667c-24.021 0-42.667-18.688-42.667-42.667 0-24.021 18.688-42.667 42.667-42.667h170.667c24.021 0 42.667 18.688 42.667 42.667 0 24.021-18.688 42.667-42.667 42.667z" />
<glyph unicode="&#x1f5d1;" glyph-name="delete" d="M128 618.667c0 24.021 18.688 42.667 42.667 42.667h42.667c46.677 0 85.333-38.656 85.333-85.333v-469.333h426.667v469.333c0 46.677 38.656 85.333 85.333 85.333h42.667c24.021 0 42.667-18.688 42.667-42.667 0-24.021-18.688-42.667-42.667-42.667h-42.667v-469.333c0-46.677-38.656-85.333-85.333-85.333h-426.667c-46.677 0-85.333 38.656-85.333 85.333v469.333h-42.667c-24.021 0-42.667 18.688-42.667 42.667zM128 746.667c0 24.021 18.688 42.667 42.667 42.667h170.667v42.667c0 24.021 18.688 42.667 42.667 42.667h256c23.401-0.4 42.266-19.265 42.666-42.629l0.001-0.038v-42.667h170.667c24.021 0 42.667-18.688 42.667-42.667 0-24.021-18.688-42.667-42.667-42.667h-682.667c-24.021 0-42.667 18.688-42.667 42.667zM384 234.667v298.667c0 22.656 20.011 42.667 42.667 42.667 24.021 0 42.667-20.011 42.667-42.667v-298.667c0-22.656-18.688-42.667-42.667-42.667-24.021 0-42.667 20.011-42.667 42.667zM554.667 234.667v298.667c0 22.656 20.011 42.667 42.667 42.667 24.021 0 42.667-20.011 42.667-42.667v-298.667c0-22.656-18.688-42.667-42.667-42.667-24.021 0-42.667 20.011-42.667 42.667z" />
<glyph unicode="&#x1f642;" glyph-name="account" d="M688 404.011c117.333 0 208-88.021 208-217.344v-122.667c0-24.021-18.688-42.667-42.667-42.667-24.021 0-42.667 18.688-42.667 42.667v122.667c0 107.989-80 132.011-118.656 132.011-53.333-26.667-114.688-41.344-180.011-41.344s-126.677 14.677-180.011 41.344c-39.979 0-118.656-24.021-118.656-132.011v-122.667c0-24.021-18.688-42.667-42.667-42.667-24.021 0-42.667 18.688-42.667 42.667v122.667c0 123.989 89.344 217.344 201.344 217.344 13.312 0 30.635-2.688 39.979-8.021 41.344-22.656 89.344-33.323 142.677-33.323s101.333 10.667 142.677 33.323c10.667 5.333 22.656 8.021 33.323 8.021zM512 874.667c117.333 0 213.333-96 213.333-213.333s-96-213.333-213.333-213.333-213.333 96-213.333 213.333 96 213.333 213.333 213.333zM512 789.333c-70.698-0.024-128-57.342-128-128.043 0-70.716 57.327-128.043 128.043-128.043 0.015 0 0.030 0 0.045 0h-0.002c70.698 0.024 128 57.342 128 128.043 0 70.716-57.327 128.043-128.043 128.043-0.015 0-0.030 0-0.045 0h0.002z" />
<glyph unicode="&#x1f6c8;" glyph-name="info" d="M512 874.667c0.127 0 0.277 0 0.427 0 235.406 0 426.24-190.834 426.24-426.24 0-0.15 0-0.3 0-0.45v0.023c0-0.127 0-0.277 0-0.427 0-235.406-190.834-426.24-426.24-426.24-0.15 0-0.3 0-0.45 0h0.023c-0.127 0-0.277 0-0.427 0-235.406 0-426.24 190.834-426.24 426.24 0 0.15 0 0.3 0 0.45v-0.023c0 0.127 0 0.277 0 0.427 0 235.406 190.834 426.24 426.24 426.24 0.15 0 0.3 0 0.45 0h-0.023zM512 789.333c-189.355 0-341.333-152.021-341.333-341.333 0-187.989 153.344-341.333 341.333-341.333s341.333 153.344 341.333 341.333c0 189.355-153.344 341.333-341.333 341.333zM512 533.333c25.344 0 42.667-18.688 42.667-42.667v-170.667h43.989c22.656 0 41.344-20.011 41.344-42.667s-18.688-42.667-41.344-42.667h-171.989c-22.656 0-42.667 20.011-42.667 42.667 0 24.021 20.011 42.667 42.667 42.667h42.667v128h-40.021c-23.979 0-42.667 20.011-42.667 42.667s18.688 42.667 42.667 42.667h82.688zM512 704c29.355 0 53.333-22.656 53.333-52.011 0-30.635-24.021-53.333-53.333-53.333-29.355 0-53.333 22.656-53.333 53.333 0 29.397 24.021 52.011 53.333 52.011z" />
<glyph unicode="&#x1f6cd;" glyph-name="shopping-bag" d="M512 874.667c93.355 0 169.344-66.688 169.344-170.667h86.656c21.333 0 40.021-17.323 41.344-40.021l45.312-553.301c1.365-25.344-18.645-46.677-42.667-46.677h-599.936c-24.021 0-44.032 21.333-42.667 46.677l43.947 553.301c1.323 22.377 19.793 40.022 42.384 40.022 0.099 0 0.199 0 0.298-0.001h85.318c0 104.021 77.355 170.667 170.667 170.667zM728.021 618.667h-433.408l-35.968-469.333h506.667l-37.333 469.333zM510.677 789.333c-48 0-84.011-36.011-84.011-85.333h169.344c0 53.333-40.021 85.333-85.333 85.333zM596.011 490.667c0-50.688-37.333-85.333-84.011-85.333-43.989 0-86.656 32-86.656 85.333 0 24.021-20.011 42.667-41.344 42.667-24.021 0-42.667-18.688-42.667-42.667 0-94.677 75.989-170.667 169.344-170.667 94.677 0 170.667 75.989 170.667 170.667 0 24.021-20.011 42.667-42.667 42.667-24.021 0-42.667-18.688-42.667-42.667z" />
<glyph unicode="&#x1f6d2;" glyph-name="shopping-cart" d="M373.333 128c29.355 0 53.333-24.021 53.333-53.333 0-29.355-24.021-53.333-53.333-53.333-29.355 0-53.333 24.021-53.333 53.333 0 29.355 24.021 53.333 53.333 53.333zM736 128c29.355 0 53.333-24.021 53.333-53.333 0-29.355-24.021-53.333-53.333-53.333-29.355 0-53.333 24.021-53.333 53.333 0 29.355 24.021 53.333 53.333 53.333zM177.323 832c56.064 0 108.032-21.333 121.344-89.344h544c46.677 0 82.688-42.667 73.344-87.979l-41.344-170.667c-9.573-45.419-46.768-79.899-92.851-85.285l-0.504-0.048-411.989-45.397 10.667-58.667c1.323-10.667 10.667-18.645 20.011-18.645h352c24.021 0 43.989-18.688 43.989-42.667 0-22.699-19.968-41.344-43.989-41.344h-352c-52.011 0-97.323 37.333-105.344 89.344l-75.989 429.355c-2.851 20.445-20.219 36.011-41.223 36.011-0.043 0-0.085 0-0.128 0h-49.316c-24.021 0-42.667 18.688-42.667 42.667 0 22.656 18.688 42.667 42.667 42.667h49.323zM822.656 660.011h-512l41.344-222.677 413.355 46.677c9.301 1.323 17.323 7.979 18.645 17.323l38.656 158.677z" />
<glyph unicode="&#xe1062;" glyph-name="alarm-add" d="M736 832c0.127 0 0.277 0.001 0.427 0.001 88.13 0 159.573-71.443 159.573-159.573 0-0.15 0-0.3-0.001-0.45v0.023c-0.082-49.144-22.248-93.095-57.102-122.468l-0.242-0.198c9.344-32 14.677-65.323 14.677-100.011 0-0.143 0-0.313 0-0.483 0-81.9-28.658-157.106-76.493-216.138l0.504 0.642 69.333-102.699c3.968-6.656 6.656-16 6.656-23.979 0-22.656-18.688-42.667-42.667-42.667-14.417 0.069-27.105 7.409-34.593 18.538l-0.095 0.15-61.312 91.989c-55.885-42.445-126.623-67.995-203.328-67.995s-147.443 25.551-204.166 68.605l0.838-0.61-61.397-92.032c-7.75-11.321-20.607-18.653-35.177-18.653-0.278 0-0.556 0.003-0.833 0.008l0.041-0.001c-22.699 0-42.667 18.688-42.667 42.667 0 8.021 2.645 16 7.979 24.021l69.376 103.979c-47.311 57.592-75.992 132.054-75.992 213.215 0 0.507 0.001 1.013 0.003 1.519v-0.078c0 34.688 5.333 69.333 14.677 101.333-34.217 29.538-55.805 72.899-56.021 121.306v0.038c0.266 88.258 71.741 159.734 159.974 160h0.026c48 0 91.989-21.333 121.344-56.021 32 9.387 66.645 16 102.656 16 34.688 0 69.333-6.656 102.656-15.957 29.311 34.344 72.639 55.979 121.020 55.979 0.114 0 0.228 0 0.341 0h-0.018zM512 706.645c-142.062-0.097-257.201-115.222-257.323-257.269v-0.011c0.073-142.095 115.232-257.268 257.314-257.365h0.009c141.355 0 256 116.011 256 257.323 0 141.355-114.688 257.323-256 257.323zM736 746.667c-0.199 0.002-0.433 0.003-0.668 0.003-14.048 0-27.169-3.97-38.301-10.85l0.314 0.18c41.426-26.935 75.722-61.231 101.849-101.335l0.807-1.321c6.656 11.989 10.667 25.301 10.667 38.656 0 41.344-33.323 74.667-74.667 74.667zM288 746.667c-41.344 0-74.667-33.323-74.667-74.667 0-13.355 4.011-26.667 10.667-38.656 26.667 41.301 61.355 77.312 102.656 102.656-11.989 8.021-25.301 10.667-38.656 10.667zM512 618.667c24.021 0 42.667-21.333 42.667-42.667v-85.333h85.333c24.021 0 42.667-18.645 42.667-42.667 0-23.979-18.688-42.667-42.667-42.667h-85.333v-85.333c0-22.656-20.011-42.667-42.667-42.667-24.021 0-42.667 20.011-42.667 42.667v85.333l-85.333 1.323c-24.021 0-42.667 17.365-42.667 41.344 0 24.021 18.688 42.667 42.667 42.667h85.333v85.333c0 21.333 18.688 42.667 42.667 42.667z" />
<glyph unicode="&#xe1066;" glyph-name="discount" d="M512 868.693c27.989 0 52.864-12.416 70.443-34.176l37.333-45.611c1.024-2.091 4.139-2.091 7.253-1.024l54.912 14.507c7.036 1.961 15.115 3.088 23.457 3.088 48.42 0 87.971-37.974 90.496-85.765l0.009-0.225 3.115-59.051c0-2.133 2.091-4.181 4.139-5.205l54.912-20.736c34.196-13.139 58.027-45.713 58.027-83.853 0-0.026 0-0.051 0-0.077v0.004c0-17.621-5.163-35.2-14.507-49.707l-32.085-49.749c-0.491-0.902-0.779-1.974-0.779-3.115s0.289-2.213 0.797-3.15l-0.017 0.035 32.085-49.749c9.344-14.507 14.507-32.085 14.507-49.707 0-34.219-19.669-69.419-58.027-83.925l-54.912-20.736c-3.115-1.024-4.139-2.091-4.139-5.205l-3.115-59.051c-2.228-47.969-41.66-86.016-89.978-86.016-0.062 0-0.124 0-0.186 0h0.010c-8.277 0-15.531 1.067-23.808 3.115l-54.912 14.507c-3.115 1.067-6.229 1.067-7.253-1.024l-37.333-45.611c-17.579-21.76-42.453-34.176-70.443-34.176-0.049 0-0.107 0-0.166 0-28.437 0-53.771 13.286-70.134 33.988l-0.143 0.188-36.267 45.611c-2.091 2.091-4.181 3.115-7.253 2.091l-55.979-15.573c-7.036-1.961-15.115-3.088-23.457-3.088-48.42 0-87.971 37.974-90.496 85.765l-0.009 0.225-3.115 59.051c0 2.133-1.024 4.181-4.139 5.205l-54.912 20.736c-34.196 13.139-58.027 45.713-58.027 83.853 0 0.026 0 0.051 0 0.077v-0.004c0 17.621 5.163 35.2 14.507 49.707l32.085 49.749c0.491 0.902 0.779 1.974 0.779 3.115s-0.289 2.213-0.797 3.15l0.017-0.035-32.085 49.749c-9.073 14.073-14.476 31.256-14.507 49.698v0.008c0 34.219 19.669 69.419 58.027 83.925l54.912 20.736c2.048 1.024 4.139 3.115 4.139 5.205l3.115 59.051c2.228 47.969 41.66 86.016 89.978 86.016 0.062 0 0.124 0 0.186 0h-0.010c8.277 0 15.531-1.067 23.808-3.115l54.912-14.507c2.091-1.067 6.229 0 7.253 1.024l37.333 45.611c17.579 21.76 42.453 34.176 70.443 34.176zM507.861 780.629l-37.291-45.611c-17.621-21.76-43.52-33.152-70.485-33.152-7.253 0-15.531 1.024-23.808 3.115l-57.003 14.507c-3.115 1.024-6.229-1.024-6.229-4.139l-3.115-59.136c-2.048-36.267-24.875-66.304-58.027-79.787l-54.912-21.76c-3.115-1.024-4.139-5.163-2.048-8.277l31.061-48.683c9.344-15.573 14.507-32.128 14.507-49.749s-5.163-34.176-14.507-49.749l-31.061-47.659c-1.067-3.115-1.067-7.253 2.048-8.277l54.912-22.784c33.152-13.483 55.979-43.52 58.027-79.787l3.115-59.093c0-3.115 2.091-5.163 6.229-4.139l57.003 14.507c8.277 2.091 16.555 3.115 23.808 3.115 26.965 0 52.864-11.392 70.485-33.152l37.291-45.611c0.871-1.395 2.398-2.309 4.139-2.309s3.267 0.914 4.127 2.288l0.012 0.020 37.291 45.611c16.605 20.3 41.655 33.155 69.708 33.155 0.273 0 0.547-0.001 0.82-0.004h-0.042c7.253 0 15.531-1.024 23.808-3.115l57.003-14.507c3.115-1.024 6.229 2.091 6.229 4.139l3.115 59.093c2.048 36.267 24.875 66.304 58.027 79.787l54.912 21.76c4.139 1.024 5.163 5.163 3.115 7.253l-32.128 49.707c-8.95 14.128-14.329 31.293-14.506 49.702v0.048c0 17.621 5.163 34.176 14.507 49.749l31.061 47.659c2.091 4.139 1.067 8.277-2.048 9.301l-54.912 21.76c-33.152 13.483-55.979 43.52-58.027 79.787l-3.115 59.093c0 3.115-3.115 5.163-6.229 4.139l-57.003-14.507c-7.12-1.892-15.311-3.023-23.752-3.114h-0.056c-0.231-0.002-0.504-0.003-0.778-0.003-28.052 0-53.102 12.855-69.581 32.995l-0.127 0.16-37.291 45.611c-0.871 1.395-2.398 2.309-4.139 2.309s-3.267-0.914-4.127-2.288l-0.012-0.020zM640.469 319.531c0.14-0.002 0.306-0.003 0.472-0.003 23.211 0 42.027 18.816 42.027 42.027 0 0.151-0.001 0.302-0.002 0.452v-0.023c0.002 0.14 0.003 0.306 0.003 0.472 0 23.211-18.816 42.027-42.027 42.027-0.166 0-0.332-0.001-0.497-0.003h0.025c-0.128 0.001-0.278 0.002-0.429 0.002-23.211 0-42.027-18.816-42.027-42.027 0-0.166 0.001-0.331 0.003-0.497v0.025c0-23.808 18.645-42.453 42.453-42.453zM425.984 319.531c-23.457 0.017-42.466 19.037-42.466 42.496 0 0.36 0.004 0.719 0.013 1.077l-0.001-0.053c0 10.325 4.139 21.76 12.416 30.037l170.965 170.965c8.277 8.277 19.712 12.416 30.037 12.416 0.257 0.006 0.559 0.009 0.862 0.009 23.564 0 42.667-19.103 42.667-42.667 0-0.303-0.003-0.605-0.009-0.907l0.001 0.045c0-10.325-4.139-21.76-12.416-30.037l-170.965-170.965c-7.892-7.682-18.683-12.419-30.581-12.419-0.184 0-0.367 0.001-0.551 0.003h0.028zM384.555 490.496c24.875 0 44.544 19.669 44.544 44.544 0 23.851-19.669 44.544-44.544 44.544s-44.544-20.651-44.544-44.544c0-24.875 19.669-44.544 44.544-44.544z" />
<glyph unicode="&#xe1069;" glyph-name="filter" d="M342.656 406.656c73.344 0 144-51.968 164.011-129.323h388.011c23.979 0 42.667-20.011 42.667-42.667 0-23.979-18.688-42.667-42.667-42.667h-386.688c-18.645-74.667-85.333-126.677-165.333-126.677-78.677 0-146.645 50.688-165.333 126.677h-49.323c-22.656 0-42.667 18.688-42.667 42.667 0 22.656 20.011 42.667 42.667 42.667h49.323c20.011 74.667 88.021 129.323 165.333 129.323zM341.333 320c-48 0-85.333-40.021-85.333-85.333 0-48 38.656-85.333 85.333-85.333s85.333 37.333 85.333 85.333c0 46.677-38.656 85.333-85.333 85.333zM683.989 832c78.897-0.643 145.123-54.14 165.050-126.789l0.283-1.211h46.677c24.021 0 42.667-20.011 42.667-42.667 0-24.021-18.688-42.667-42.667-42.667h-46.677c-18.645-74.667-85.333-128-165.333-128-77.312 0-146.645 52.011-165.333 128h-390.656c-24.021 0-42.667 18.688-42.667 42.667 0 22.656 18.688 42.667 42.667 42.667h390.656c20.011 74.667 88.021 128 165.333 128zM682.667 746.667c-46.677 0-85.333-38.656-85.333-85.333s38.656-85.333 85.333-85.333c46.677 0 85.333 37.333 85.333 85.333 0 46.677-38.656 85.333-85.333 85.333z" />
<glyph unicode="&#xe1070;" glyph-name="generic-card" d="M832 746.667c57.344 0 106.667-43.947 106.667-100.011v-390.656c0-57.344-43.947-106.667-100.011-106.667h-646.656c-57.344 0-106.667 43.947-106.667 100.011v390.656c0 56.021 43.947 106.667 100.011 106.667h646.656zM853.333 490.667h-682.667v-234.667c0-10.752 6.656-21.333 17.323-21.333h644.011c10.667 0 21.333 6.656 21.333 17.323v238.677zM836.011 661.333h-644.011c-10.667 0-21.333-8.021-21.333-17.323v-68.011h682.667v64c0 10.667-6.571 21.333-17.323 21.333z" />
<glyph unicode="&#xe1077;" glyph-name="share" d="M704.341 832c82.208-0.194 148.798-66.784 148.992-148.973v-0.019c0-82.987-66.987-150.016-148.992-150.016-47.019 0-87.040 22.016-114.987 55.040l-210.048-104.064c2.987-11.989 4.992-24.021 4.992-36.011s-2.005-24.021-4.992-34.987l210.987-104.021c27.123 33.077 67.99 54.016 113.748 54.016 0.091 0 0.181 0 0.272 0h-0.014c82.005 0 148.992-66.987 148.992-150.016-0.218-82.175-66.775-148.731-148.928-148.949h-0.021c-82.987 0-150.016 66.987-150.016 148.992 0 5.973 1.195 14.251 2.005 18.005l-219.989 107.989c-26.394-24.767-62.009-39.981-101.177-39.981-0.28 0-0.56 0.001-0.84 0.002h0.043c-0.089 0-0.194 0-0.299 0-82.145 0-148.736 66.591-148.736 148.736 0 0.090 0 0.18 0 0.27v-0.014c0.218 82.198 66.794 148.774 148.971 148.992h0.021c0.242 0.001 0.528 0.002 0.815 0.002 38.85 0 74.144-15.227 100.239-40.039l-0.062 0.058 221.013 108.971c-1.275 4.991-2.006 10.721-2.006 16.621 0 0.142 0 0.283 0.001 0.425v-0.022c0 82.005 66.987 148.992 150.016 148.992zM703.829 278.016c-0.025 0-0.055 0-0.085 0-35.582 0-64.427-28.845-64.427-64.427 0-0.030 0-0.060 0-0.090v0.005c0-34.731 28.8-63.488 64.512-63.488 34.731 0 63.488 28.757 63.488 63.488 0 35.712-28.757 64.512-63.488 64.512zM234.325 512c-34.987 0-64-29.013-64-64s29.013-64 64-64c36.011 0 65.024 29.013 65.024 64s-29.013 64-65.024 64zM704.512 746.667c-35.755 0-64.512-28.757-64.512-63.488 0-35.755 28.757-64.512 64.512-64.512 34.731 0 63.488 28.757 63.488 64.512 0 34.731-28.757 63.488-63.488 63.488z" />
<glyph unicode="&#xe1079;" glyph-name="shopping-basket" d="M512.043 874.667c0.266 0.001 0.582 0.002 0.898 0.002 140.866 0 255.061-114.195 255.061-255.061 0-0.331-0.001-0.661-0.002-0.991v0.051h112.555c36.053 0 62.763-33.323 57.429-68.011l-73.429-439.979c-9.387-52.011-49.408-89.344-105.515-89.344h-496.683c-49.408 0-93.44 38.656-101.461 89.344l-74.795 438.656c-5.333 34.688 17.365 69.333 52.053 69.333h117.845c0 141.385 114.615 256 256 256 0.015 0 0.030 0 0.045 0h-0.003zM848.512 533.333h-672.939l69.419-409.344c1.365-9.301 9.387-17.323 17.365-17.323h496.725c9.973 0.456 18.129 7.694 19.989 17.188l0.022 0.135 69.419 409.344zM512.043 789.333c-0.178 0.001-0.388 0.001-0.598 0.001-93.95 0-170.112-76.162-170.112-170.112 0-0.195 0-0.391 0.001-0.586v0.030h341.333c0 93.355-75.819 170.667-170.624 170.667z" />
<glyph unicode="&#xe1081;" glyph-name="upload" d="M256 21.333h512c70.692 0 128 57.308 128 128v0 170.667c0 24.021-18.688 42.667-42.667 42.667-24.021 0-42.667-18.688-42.667-42.667v-170.667c0-24.021-18.688-42.667-42.667-42.667h-512c-24.021 0-42.667 18.688-42.667 42.667v170.667c0 24.021-18.688 42.667-42.667 42.667-24.021 0-42.667-18.688-42.667-42.667v-170.667c0-70.692 57.308-128 128-128v0zM512 874.667c10.667 0 22.656-3.968 30.677-11.947l169.344-170.325c8.19-7.097 13.34-17.514 13.34-29.134 0-0.513-0.010-1.023-0.030-1.531l0.002 0.073c0-22.613-18.688-41.216-42.667-41.216-10.667 0-22.656 3.968-30.677 11.947l-97.323 97.109v-409.728c0-23.936-20.011-42.581-42.667-42.581-24.021 0-42.667 18.645-42.667 42.581v409.685l-97.323-97.067c-9.344-7.979-20.011-11.947-30.677-11.947-24.021 0-42.667 18.603-42.667 42.539 0 10.667 4.011 21.333 13.355 29.269l169.259 170.325c8.107 7.979 20.053 11.947 30.72 11.947z" />
<glyph unicode="&#xe1082;" glyph-name="visibility-off" d="M853.333 832c22.656 0 42.667-18.688 42.667-42.667 0-10.667-4.011-22.656-11.989-30.677l-682.667-682.667c-8.113-7.295-18.851-11.814-30.642-11.989h-0.036c-24.021 0-42.667 17.323-42.667 42.667 0 10.667 4.011 21.333 11.989 29.355l116.011 115.925c-59.989 50.688-114.688 106.667-161.323 169.344-5.819 6.994-9.351 16.071-9.351 25.973 0 0.259 0.002 0.517 0.007 0.775l-0.001-0.039c0 9.344 2.688 18.688 9.344 26.667 70.656 88.021 217.344 272 417.323 272 68.629-1.582 132.357-21.203 187.034-54.282l-1.69 0.949 125.312 125.355c7.722 8.147 18.598 13.239 30.664 13.312h0.014zM512 661.333c-142.677 0-261.333-130.688-329.344-213.333 39.895-50.222 83.648-94.395 131.753-133.414l1.581-1.242 101.333 100.011c-5.333 10.667-6.656 22.613-6.656 34.645 0 0.013 0 0.028 0 0.043 0 55.941 45.349 101.291 101.291 101.291 0.015 0 0.030 0 0.045 0h-0.002c11.989 0 24.021-2.688 34.688-6.656l86.613 87.979c-35.319 18.065-76.845 29.237-120.835 30.665l-0.466 0.012zM770.688 526.677c24.062-24.407 47.145-50.045 69.036-76.698l1.577-1.979c-68.011-84.011-186.667-213.333-329.344-213.333-10.667 0-20.011 0-30.677 1.323l-70.656-70.656c32-10.667 66.688-16 101.333-16 200.021 0 346.667 184.021 417.323 272 5.844 7.003 9.392 16.098 9.392 26.022 0 0.227-0.002 0.453-0.006 0.678v-0.034c0.004 0.207 0.006 0.451 0.006 0.695 0 9.901-3.531 18.977-9.404 26.038l0.054-0.066c-32.534 41.135-64.376 77.628-97.845 112.548l0.522-0.548-61.355-59.989z" />
<glyph unicode="&#xe1083;" glyph-name="zoom-in" d="M426.667 874.667c189.355 0 342.656-153.088 342.656-340.821 0.001-0.326 0.002-0.711 0.002-1.097 0-79.244-27.099-152.159-72.536-209.983l0.555 0.733 229.333-227.627c7.424-7.592 12.004-17.992 12.004-29.462 0-0.397-0.006-0.794-0.016-1.189l0.001 0.058c0-27.989-22.656-43.947-43.989-43.947-9.344 0-20.011 4.011-29.355 13.312l-227.968 228.992c-57.213-44.833-130.222-71.895-209.551-71.895-0.4 0-0.8 0.001-1.199 0.002h0.062c-187.989 0-341.333 153.088-341.333 342.101 0 187.733 153.344 340.821 341.333 340.821zM426.667 789.461c-141.355 0-256-114.475-256-255.573-0.001-0.241-0.001-0.526-0.001-0.811 0-141.411 114.6-256.056 255.994-256.128h0.007c0.266-0.001 0.581-0.002 0.896-0.002 141.621 0 256.427 114.806 256.427 256.427 0 0.166 0 0.331 0 0.497v-0.026c0 141.141-114.645 255.616-257.323 255.616zM426.667 362.88c24.021 0 42.667 19.2 42.667 43.179v84.608h85.333c26.667 0 42.667 19.968 42.667 42.581s-18.688 42.624-42.667 42.624l-85.333 0.128v88.32c0 21.333-20.011 39.936-42.667 39.936s-42.667-18.645-42.667-42.581v-85.803h-85.333c-26.667 0-42.667-21.248-42.667-42.539 0-23.979 18.688-42.667 42.667-42.667h85.333v-85.931c0-22.613 18.688-41.856 42.667-41.856z" />
<glyph unicode="&#xe1084;" glyph-name="zoom-out" d="M426.667 874.667c189.355 0 342.656-153.344 342.656-341.333 0.001-0.335 0.002-0.733 0.002-1.13 0-79.345-27.096-152.361-72.541-210.299l0.56 0.741 229.333-227.968c7.979-8.661 11.989-19.669 11.989-30.677 0-24.661-18.133-42.539-42.325-42.539-0.024 0-0.052 0-0.080 0-10.19 0-19.571 3.468-27.025 9.289l0.097-0.073-232.021 231.979c-57.183-44.858-130.173-71.938-209.489-71.938-0.407 0-0.813 0.001-1.22 0.002h0.063c-187.989 0-341.333 153.301-341.333 342.656 0 187.989 153.344 341.333 341.333 341.333zM426.667 789.333c-141.355 0-256-114.688-256-256 0-142.677 114.688-257.323 256-257.323 0.203-0.001 0.443-0.001 0.684-0.001 141.738 0 256.64 114.902 256.64 256.64 0 0.24 0 0.481-0.001 0.721v-0.037c0 141.355-114.645 256-257.323 256zM554.667 576h-256c-24.021 0-42.667-18.688-42.667-42.667 0-24.021 18.688-42.667 42.667-42.667h256c24.021 0 43.989 18.688 43.989 42.667 0 24.021-20.011 42.667-43.989 42.667z" />
<glyph unicode="&#xe1154;" glyph-name="ic-db_action_duplicate_24" d="M170.667 704c21.888 0 42.837-21.291 42.667-42.667v-554.667h469.333c21.888 0 42.667-20.779 42.667-42.667s-21.376-42.752-42.667-42.667h-490.667c-35.346 0-64 28.654-64 64v0 576c0 23.564 19.103 42.667 42.667 42.667v0zM849.067 874.667c24.192 0 47.019-23.253 46.933-46.933v-588.8c0-24.192-23.552-47.275-46.933-46.933h-503.467c-24.192 0-46.805 22.443-46.933 46.933v588.8c0 24.192 22.613 46.805 46.933 46.933h503.467zM810.667 789.333h-426.667v-512h426.667v512zM640 661.333v-85.205h85.333v-85.333h-85.333v-85.333h-85.333v85.333h-85.333v85.333h85.333v85.205h85.333z" />
<glyph unicode="&#xe1155;" glyph-name="ic-db_action_shopping-basket-disabled_24" d="M863.019 618.667h17.536c34.133 0 64.171-32.085 57.429-68.011-24.363-146.688-48.853-293.333-73.429-439.979-8.96-49.664-45.824-85.931-97.963-89.131l-7.509-0.213h-492.757l85.376 85.461 407.381-0.128c8.758 0.419 16.112 6.007 19.107 13.762l0.050 0.147 1.835 3.413 82.944 494.72zM512 874.667c0.317 0.001 0.693 0.002 1.069 0.002 98.252 0 183.514-55.619 226.017-137.090l0.669-1.408 106.155 106.24c7.724 7.729 18.397 12.51 30.187 12.51 23.569 0 42.675-19.106 42.675-42.675 0-11.779-4.772-22.444-12.489-30.166v0c-260.596-260.946-504.108-504.62-747.701-748.213l-0.032-0.032c-7.724-7.729-18.397-12.51-30.187-12.51-23.569 0-42.675 19.106-42.675 42.675 0 11.779 4.772 22.444 12.489 30.166v0c18.603 18.731 37.205 37.376 55.936 55.979l-68.011 399.189c-5.035 32.725 15.445 69.333 52.053 69.333 17.483 0.041 38.2 0.064 58.923 0.064 20.706 0 41.407-0.023 62.102-0.070l-3.179 0.006c0 141.385 114.615 256 256 256 0.015 0 0.030 0 0.045 0h-0.003zM536.96 533.333h-361.387l52.437-309.248 308.992 309.248zM512 789.333c-0.182 0.001-0.397 0.001-0.612 0.001-91.136 0-165.529-71.685-169.869-161.745l-0.015-0.389-0.171-8.533h280.96l52.181 52.181c-22.795 69.264-86.864 118.4-162.422 118.485h-0.010z" />
<glyph unicode="&#xe1156;" glyph-name="ic-db_action_shopping-cart-disabled_24" horiz-adv-x="983" d="M357.908 120.32h0.492c28.18 0 51.2-23.060 51.2-51.2 0-28.18-23.060-51.2-51.2-51.2-26.419 0-48.333 20.234-50.954 45.998l-0.205 5.652 50.668 50.749zM706.56 120.32c28.18 0 51.2-23.060 51.2-51.2 0-28.18-23.060-51.2-51.2-51.2-28.18 0-51.2 23.060-51.2 51.2 0 28.18 23.060 51.2 51.2 51.2zM868.475 804.598c14.746-14.746 17.408-40.428 0-57.917-215.764-215.954-422.573-422.802-629.452-629.578l-5.264-5.261c-7.412-7.41-17.65-11.993-28.959-11.993s-21.547 4.583-28.959 11.993v0c-7.351 7.439-11.892 17.668-11.892 28.959s4.541 21.52 11.896 28.963l-0.004-0.004c35.742 35.914 70.16 70.358 104.647 104.733l0.989 0.985-71.557 404.193c-2.737 19.627-19.41 34.57-39.574 34.57-0.041 0-0.082 0-0.123 0h-47.344c-23.060 0-40.96 17.94-40.96 40.96 0 21.75 17.94 40.96 40.96 40.96h47.35c53.821 0 103.711-20.48 116.49-85.77l429.588 0.041 94.208 94.167c7.414 7.422 17.66 12.013 28.979 12.013s21.565-4.591 28.979-12.013v0zM499.917 262.451h222.003c23.060 0 42.23-17.94 42.23-40.96 0-21.791-19.169-39.69-42.23-39.69h-302.572l80.568 80.65zM880.681 643.379c0.287-5.734-0.123-11.551-1.311-17.408l-39.69-163.84c-9.19-43.602-44.898-76.703-89.137-81.874l-0.484-0.046-148.808-16.384 93.757 93.839 39.731 4.465c7.884 0.95 14.35 6.172 17.073 13.251l0.048 0.143 12.534 51.569 116.326 116.244zM637.010 631.132l-338.739-0.041 39.649-213.77 96.215 10.895 202.875 202.916z" />
</font>
</defs>
</svg>
