<svg width="50" height="50" xmlns="http://www.w3.org/2000/svg" xmlns:svg="http://www.w3.org/2000/svg">
 <style>.st0{fill:#f01414}.st1{fill:#fff}</style>
 <title>db_em_rgb_100px</title>
 <g class="layer">
  <title>Layer 1</title>
  <path class="st0" d="m44.37,1l-38.55,0c-2.65,0 -4.82,2 -4.82,4.44l0,22.19c0,2.44 2.16,4.44 4.82,4.44l38.55,0c2.65,0 4.82,-2 4.82,-4.48l0,-22.14c0,-2.44 -2.16,-4.44 -4.82,-4.44l0,-0.01z" id="svg_1"/>
  <path class="st1" d="m46.33,27.6c0.05,0.68 -0.55,1.27 -1.35,1.31l-39.79,0c-0.75,0 -1.35,-0.59 -1.35,-1.27l0,-22.68c-0.05,-0.68 0.55,-1.27 1.3,-1.31l39.84,0c0.75,0 1.35,0.59 1.35,1.27l0,22.68z" id="svg_2">Cargo</path>
  <path class="st0" d="m14.87,26.52l-8.74,0l0,-20.76l8.74,0c6.19,0 9.57,3.35 9.57,10.29c0,5.98 -2.34,10.42 -9.57,10.47zm3.8,-10.06c0,-4.17 -0.53,-7.44 -5.67,-7.44l-1.14,0l0,14.15l2.03,0c3.02,0 4.79,-2.13 4.79,-6.71zm20.86,-0.82c2.44,-0.63 4.11,-2.58 4.16,-4.85c0,-0.46 -0.1,-5.07 -6.82,-5.07l-9.93,0l0,20.76l8.42,0c2.23,0 9.2,0 9.2,-5.85c0,-1.4 -0.73,-4.17 -5.04,-4.99l0.01,0zm-6.92,-6.66l1.82,0c2.55,0 3.59,0.77 3.59,2.49c0,1.36 -1.14,2.49 -3.12,2.49l-2.23,0l0,-4.99l-0.05,0l-0.01,0zm2.34,14.19l-2.34,0l0,-5.35l2.5,0c2.96,0 3.7,1.49 3.7,2.68c0,2.68 -2.91,2.68 -3.85,2.68l-0.01,-0.01z" id="svg_3"/>
  <text fill="black" font-family="Helvetica" font-size="45px" id="svg_4" transform="matrix(0.398571 0 0 0.364726 2.55666 30.672)" x="-4.51" y="41.64">Cargo</text>
 </g>
</svg>